<svg xmlns="http://www.w3.org/2000/svg" width="960" height="380" font-family="sans-serif" font-size="11">
<rect width="960" height="380" fill="#ffffff"/>
<text x="44" y="18" font-size="12" fill="#111">F2 H1 SHORT | 2023-11-24 05:00 -&gt; 2023-11-24 20:45 | net -10.51 USD</text>
<line x1="480.0" y1="44" x2="480.0" y2="336" stroke="#1f6feb" stroke-dasharray="4 3"/>
<line x1="902.6" y1="44" x2="902.6" y2="336" stroke="#d97706" stroke-dasharray="4 3"/>
<line x1="45.1" y1="267.4" x2="45.1" y2="282.3" stroke="#1a7f37"/>
<rect x="44.3" y="273.6" width="1.6" height="8.7" fill="#1a7f37"/>
<line x1="47.4" y1="267.6" x2="47.4" y2="276.5" stroke="#1a7f37"/>
<rect x="46.6" y="268.7" width="1.6" height="5.1" fill="#1a7f37"/>
<line x1="49.6" y1="251.7" x2="49.6" y2="269.1" stroke="#1a7f37"/>
<rect x="48.8" y="257.9" width="1.6" height="10.8" fill="#1a7f37"/>
<line x1="51.8" y1="248.5" x2="51.8" y2="259.3" stroke="#1a7f37"/>
<rect x="51.0" y="257.2" width="1.6" height="0.8" fill="#1a7f37"/>
<line x1="54.1" y1="247.4" x2="54.1" y2="259.8" stroke="#1a7f37"/>
<rect x="53.3" y="249.6" width="1.6" height="7.9" fill="#1a7f37"/>
<line x1="56.3" y1="249.4" x2="56.3" y2="269.7" stroke="#cf222e"/>
<rect x="55.5" y="249.6" width="1.6" height="20.2" fill="#cf222e"/>
<line x1="58.5" y1="259.1" x2="58.5" y2="269.3" stroke="#1a7f37"/>
<rect x="57.8" y="262.5" width="1.6" height="6.8" fill="#1a7f37"/>
<line x1="60.8" y1="241.1" x2="60.8" y2="268.0" stroke="#1a7f37"/>
<rect x="60.0" y="246.6" width="1.6" height="15.9" fill="#1a7f37"/>
<line x1="63.0" y1="243.0" x2="63.0" y2="256.4" stroke="#cf222e"/>
<rect x="62.2" y="244.3" width="1.6" height="8.1" fill="#cf222e"/>
<line x1="65.2" y1="247.2" x2="65.2" y2="256.6" stroke="#1a7f37"/>
<rect x="64.5" y="249.1" width="1.6" height="3.2" fill="#1a7f37"/>
<line x1="67.5" y1="240.6" x2="67.5" y2="253.6" stroke="#1a7f37"/>
<rect x="66.7" y="247.7" width="1.6" height="1.5" fill="#1a7f37"/>
<line x1="69.7" y1="243.0" x2="69.7" y2="248.3" stroke="#1a7f37"/>
<rect x="68.9" y="245.5" width="1.6" height="2.8" fill="#1a7f37"/>
<line x1="71.9" y1="239.4" x2="71.9" y2="255.7" stroke="#cf222e"/>
<rect x="71.2" y="245.5" width="1.6" height="9.1" fill="#cf222e"/>
<line x1="74.2" y1="246.6" x2="74.2" y2="255.7" stroke="#1a7f37"/>
<rect x="73.4" y="252.5" width="1.6" height="1.7" fill="#1a7f37"/>
<line x1="76.4" y1="246.2" x2="76.4" y2="253.0" stroke="#1a7f37"/>
<rect x="75.6" y="250.8" width="1.6" height="1.3" fill="#1a7f37"/>
<line x1="78.7" y1="248.1" x2="78.7" y2="257.9" stroke="#cf222e"/>
<rect x="77.9" y="250.8" width="1.6" height="1.5" fill="#cf222e"/>
<line x1="80.9" y1="243.6" x2="80.9" y2="258.1" stroke="#cf222e"/>
<rect x="80.1" y="252.5" width="1.6" height="5.3" fill="#cf222e"/>
<line x1="83.1" y1="254.9" x2="83.1" y2="270.2" stroke="#cf222e"/>
<rect x="82.3" y="257.2" width="1.6" height="10.4" fill="#cf222e"/>
<line x1="85.4" y1="257.2" x2="85.4" y2="269.5" stroke="#1a7f37"/>
<rect x="84.6" y="263.6" width="1.6" height="5.7" fill="#1a7f37"/>
<line x1="87.6" y1="257.9" x2="87.6" y2="266.1" stroke="#cf222e"/>
<rect x="86.8" y="262.9" width="1.6" height="1.1" fill="#cf222e"/>
<line x1="89.8" y1="261.0" x2="89.8" y2="273.6" stroke="#cf222e"/>
<rect x="89.1" y="262.9" width="1.6" height="9.6" fill="#cf222e"/>
<line x1="92.1" y1="270.8" x2="92.1" y2="285.9" stroke="#cf222e"/>
<rect x="91.3" y="272.9" width="1.6" height="0.8" fill="#cf222e"/>
<line x1="94.3" y1="263.2" x2="94.3" y2="279.1" stroke="#1a7f37"/>
<rect x="93.5" y="271.2" width="1.6" height="2.3" fill="#1a7f37"/>
<line x1="96.5" y1="266.3" x2="96.5" y2="281.8" stroke="#cf222e"/>
<rect x="95.8" y="272.1" width="1.6" height="8.5" fill="#cf222e"/>
<line x1="98.8" y1="276.1" x2="98.8" y2="284.8" stroke="#cf222e"/>
<rect x="98.0" y="277.6" width="1.6" height="3.0" fill="#cf222e"/>
<line x1="101.0" y1="272.3" x2="101.0" y2="285.0" stroke="#cf222e"/>
<rect x="100.2" y="279.9" width="1.6" height="3.2" fill="#cf222e"/>
<line x1="103.3" y1="281.6" x2="103.3" y2="290.1" stroke="#1a7f37"/>
<rect x="102.5" y="281.6" width="1.6" height="1.7" fill="#1a7f37"/>
<line x1="105.5" y1="271.2" x2="105.5" y2="285.0" stroke="#1a7f37"/>
<rect x="104.7" y="281.6" width="1.6" height="0.8" fill="#1a7f37"/>
<line x1="107.7" y1="275.3" x2="107.7" y2="290.1" stroke="#cf222e"/>
<rect x="106.9" y="282.1" width="1.6" height="5.3" fill="#cf222e"/>
<line x1="110.0" y1="273.8" x2="110.0" y2="290.3" stroke="#1a7f37"/>
<rect x="109.2" y="277.8" width="1.6" height="10.4" fill="#1a7f37"/>
<line x1="112.2" y1="265.5" x2="112.2" y2="277.8" stroke="#1a7f37"/>
<rect x="111.4" y="277.0" width="1.6" height="0.8" fill="#1a7f37"/>
<line x1="114.4" y1="270.0" x2="114.4" y2="291.2" stroke="#1a7f37"/>
<rect x="113.6" y="271.7" width="1.6" height="5.1" fill="#1a7f37"/>
<line x1="116.7" y1="271.0" x2="116.7" y2="281.6" stroke="#cf222e"/>
<rect x="115.9" y="271.9" width="1.6" height="4.5" fill="#cf222e"/>
<line x1="118.9" y1="274.0" x2="118.9" y2="290.8" stroke="#cf222e"/>
<rect x="118.1" y="276.3" width="1.6" height="8.1" fill="#cf222e"/>
<line x1="121.1" y1="279.1" x2="121.1" y2="288.2" stroke="#1a7f37"/>
<rect x="120.4" y="284.2" width="1.6" height="1.1" fill="#1a7f37"/>
<line x1="123.4" y1="266.6" x2="123.4" y2="286.3" stroke="#1a7f37"/>
<rect x="122.6" y="273.6" width="1.6" height="11.3" fill="#1a7f37"/>
<line x1="125.6" y1="267.6" x2="125.6" y2="277.2" stroke="#cf222e"/>
<rect x="124.8" y="273.8" width="1.6" height="0.8" fill="#cf222e"/>
<line x1="127.8" y1="267.8" x2="127.8" y2="281.4" stroke="#1a7f37"/>
<rect x="127.1" y="267.8" width="1.6" height="5.3" fill="#1a7f37"/>
<line x1="130.1" y1="267.8" x2="130.1" y2="277.6" stroke="#cf222e"/>
<rect x="129.3" y="267.8" width="1.6" height="7.0" fill="#cf222e"/>
<line x1="132.3" y1="258.7" x2="132.3" y2="275.1" stroke="#1a7f37"/>
<rect x="131.5" y="261.5" width="1.6" height="13.0" fill="#1a7f37"/>
<line x1="134.6" y1="260.4" x2="134.6" y2="287.8" stroke="#cf222e"/>
<rect x="133.8" y="261.2" width="1.6" height="17.6" fill="#cf222e"/>
<line x1="136.8" y1="273.1" x2="136.8" y2="289.3" stroke="#cf222e"/>
<rect x="136.0" y="278.2" width="1.6" height="1.3" fill="#cf222e"/>
<line x1="139.0" y1="265.9" x2="139.0" y2="288.0" stroke="#1a7f37"/>
<rect x="138.2" y="271.0" width="1.6" height="8.1" fill="#1a7f37"/>
<line x1="141.3" y1="270.6" x2="141.3" y2="289.5" stroke="#cf222e"/>
<rect x="140.5" y="271.2" width="1.6" height="15.1" fill="#cf222e"/>
<line x1="143.5" y1="272.7" x2="143.5" y2="289.1" stroke="#1a7f37"/>
<rect x="142.7" y="274.6" width="1.6" height="11.5" fill="#1a7f37"/>
<line x1="145.7" y1="264.9" x2="145.7" y2="279.3" stroke="#cf222e"/>
<rect x="145.0" y="276.8" width="1.6" height="0.8" fill="#cf222e"/>
<line x1="148.0" y1="265.3" x2="148.0" y2="279.3" stroke="#1a7f37"/>
<rect x="147.2" y="270.2" width="1.6" height="7.2" fill="#1a7f37"/>
<line x1="150.2" y1="250.0" x2="150.2" y2="270.2" stroke="#1a7f37"/>
<rect x="149.4" y="252.3" width="1.6" height="17.4" fill="#1a7f37"/>
<line x1="152.4" y1="229.2" x2="152.4" y2="254.0" stroke="#1a7f37"/>
<rect x="151.7" y="239.4" width="1.6" height="13.2" fill="#1a7f37"/>
<line x1="154.7" y1="232.6" x2="154.7" y2="261.5" stroke="#cf222e"/>
<rect x="153.9" y="238.9" width="1.6" height="21.9" fill="#cf222e"/>
<line x1="156.9" y1="239.4" x2="156.9" y2="265.1" stroke="#1a7f37"/>
<rect x="156.1" y="251.9" width="1.6" height="7.9" fill="#1a7f37"/>
<line x1="159.1" y1="250.8" x2="159.1" y2="264.9" stroke="#cf222e"/>
<rect x="158.4" y="251.9" width="1.6" height="10.4" fill="#cf222e"/>
<line x1="161.4" y1="259.5" x2="161.4" y2="271.9" stroke="#cf222e"/>
<rect x="160.6" y="261.7" width="1.6" height="2.5" fill="#cf222e"/>
<line x1="163.6" y1="260.8" x2="163.6" y2="268.7" stroke="#1a7f37"/>
<rect x="162.8" y="263.6" width="1.6" height="0.8" fill="#1a7f37"/>
<line x1="165.9" y1="249.8" x2="165.9" y2="265.3" stroke="#1a7f37"/>
<rect x="165.1" y="263.2" width="1.6" height="1.1" fill="#1a7f37"/>
<line x1="168.1" y1="251.5" x2="168.1" y2="267.4" stroke="#cf222e"/>
<rect x="167.3" y="262.7" width="1.6" height="2.1" fill="#cf222e"/>
<line x1="170.3" y1="257.2" x2="170.3" y2="266.3" stroke="#1a7f37"/>
<rect x="169.5" y="259.8" width="1.6" height="5.5" fill="#1a7f37"/>
<line x1="172.6" y1="261.0" x2="172.6" y2="282.3" stroke="#cf222e"/>
<rect x="171.8" y="261.9" width="1.6" height="17.2" fill="#cf222e"/>
<line x1="174.8" y1="276.3" x2="174.8" y2="292.3" stroke="#cf222e"/>
<rect x="174.0" y="278.9" width="1.6" height="9.1" fill="#cf222e"/>
<line x1="177.0" y1="286.3" x2="177.0" y2="294.0" stroke="#cf222e"/>
<rect x="176.3" y="288.0" width="1.6" height="0.8" fill="#cf222e"/>
<line x1="179.3" y1="284.8" x2="179.3" y2="294.6" stroke="#cf222e"/>
<rect x="178.5" y="288.2" width="1.6" height="1.5" fill="#cf222e"/>
<line x1="181.5" y1="281.4" x2="181.5" y2="291.6" stroke="#cf222e"/>
<rect x="180.7" y="289.3" width="1.6" height="1.9" fill="#cf222e"/>
<line x1="183.7" y1="285.7" x2="183.7" y2="292.7" stroke="#1a7f37"/>
<rect x="183.0" y="286.9" width="1.6" height="4.2" fill="#1a7f37"/>
<line x1="186.0" y1="286.9" x2="186.0" y2="298.4" stroke="#cf222e"/>
<rect x="185.2" y="288.2" width="1.6" height="8.3" fill="#cf222e"/>
<line x1="188.2" y1="296.5" x2="188.2" y2="330.7" stroke="#cf222e"/>
<rect x="187.4" y="296.5" width="1.6" height="24.6" fill="#cf222e"/>
<line x1="190.5" y1="320.9" x2="190.5" y2="329.6" stroke="#cf222e"/>
<rect x="189.7" y="321.1" width="1.6" height="3.2" fill="#cf222e"/>
<line x1="192.7" y1="321.8" x2="192.7" y2="330.7" stroke="#1a7f37"/>
<rect x="191.9" y="324.1" width="1.6" height="0.8" fill="#1a7f37"/>
<line x1="194.9" y1="314.1" x2="194.9" y2="328.6" stroke="#1a7f37"/>
<rect x="194.1" y="314.1" width="1.6" height="10.0" fill="#1a7f37"/>
<line x1="197.2" y1="305.0" x2="197.2" y2="314.8" stroke="#1a7f37"/>
<rect x="196.4" y="307.3" width="1.6" height="7.2" fill="#1a7f37"/>
<line x1="199.4" y1="298.6" x2="199.4" y2="311.4" stroke="#cf222e"/>
<rect x="198.6" y="306.9" width="1.6" height="1.7" fill="#cf222e"/>
<line x1="201.6" y1="298.4" x2="201.6" y2="319.0" stroke="#cf222e"/>
<rect x="200.8" y="308.6" width="1.6" height="10.0" fill="#cf222e"/>
<line x1="203.9" y1="304.1" x2="203.9" y2="318.6" stroke="#1a7f37"/>
<rect x="203.1" y="306.1" width="1.6" height="12.5" fill="#1a7f37"/>
<line x1="206.1" y1="302.0" x2="206.1" y2="310.1" stroke="#1a7f37"/>
<rect x="205.3" y="306.1" width="1.6" height="0.8" fill="#1a7f37"/>
<line x1="208.3" y1="301.0" x2="208.3" y2="315.6" stroke="#cf222e"/>
<rect x="207.6" y="306.3" width="1.6" height="5.7" fill="#cf222e"/>
<line x1="210.6" y1="309.7" x2="210.6" y2="336.0" stroke="#cf222e"/>
<rect x="209.8" y="313.9" width="1.6" height="5.7" fill="#cf222e"/>
<line x1="212.8" y1="308.4" x2="212.8" y2="320.3" stroke="#1a7f37"/>
<rect x="212.0" y="309.2" width="1.6" height="10.6" fill="#1a7f37"/>
<line x1="215.0" y1="304.1" x2="215.0" y2="310.7" stroke="#1a7f37"/>
<rect x="214.3" y="305.8" width="1.6" height="3.6" fill="#1a7f37"/>
<line x1="217.3" y1="283.8" x2="217.3" y2="306.5" stroke="#1a7f37"/>
<rect x="216.5" y="284.4" width="1.6" height="21.9" fill="#1a7f37"/>
<line x1="219.5" y1="280.1" x2="219.5" y2="290.1" stroke="#cf222e"/>
<rect x="218.7" y="285.5" width="1.6" height="4.5" fill="#cf222e"/>
<line x1="221.8" y1="289.7" x2="221.8" y2="298.4" stroke="#cf222e"/>
<rect x="221.0" y="289.7" width="1.6" height="6.2" fill="#cf222e"/>
<line x1="224.0" y1="292.0" x2="224.0" y2="298.6" stroke="#cf222e"/>
<rect x="223.2" y="295.9" width="1.6" height="2.8" fill="#cf222e"/>
<line x1="226.2" y1="284.4" x2="226.2" y2="302.9" stroke="#1a7f37"/>
<rect x="225.4" y="284.4" width="1.6" height="14.0" fill="#1a7f37"/>
<line x1="228.5" y1="281.6" x2="228.5" y2="286.5" stroke="#1a7f37"/>
<rect x="227.7" y="282.5" width="1.6" height="4.0" fill="#1a7f37"/>
<line x1="230.7" y1="280.4" x2="230.7" y2="284.4" stroke="#cf222e"/>
<rect x="229.9" y="281.0" width="1.6" height="1.3" fill="#cf222e"/>
<line x1="232.9" y1="280.4" x2="232.9" y2="285.5" stroke="#1a7f37"/>
<rect x="232.2" y="282.1" width="1.6" height="0.8" fill="#1a7f37"/>
<line x1="235.2" y1="271.9" x2="235.2" y2="282.1" stroke="#1a7f37"/>
<rect x="234.4" y="271.9" width="1.6" height="10.2" fill="#1a7f37"/>
<line x1="237.4" y1="270.0" x2="237.4" y2="275.7" stroke="#cf222e"/>
<rect x="236.6" y="271.9" width="1.6" height="1.7" fill="#cf222e"/>
<line x1="239.6" y1="269.7" x2="239.6" y2="275.5" stroke="#1a7f37"/>
<rect x="238.9" y="271.0" width="1.6" height="1.9" fill="#1a7f37"/>
<line x1="241.9" y1="268.7" x2="241.9" y2="277.6" stroke="#cf222e"/>
<rect x="241.1" y="271.0" width="1.6" height="4.5" fill="#cf222e"/>
<line x1="244.1" y1="275.5" x2="244.1" y2="287.8" stroke="#cf222e"/>
<rect x="243.3" y="275.5" width="1.6" height="12.1" fill="#cf222e"/>
<line x1="246.3" y1="285.5" x2="246.3" y2="288.0" stroke="#1a7f37"/>
<rect x="245.6" y="285.5" width="1.6" height="2.1" fill="#1a7f37"/>
<line x1="248.6" y1="278.9" x2="248.6" y2="285.9" stroke="#1a7f37"/>
<rect x="247.8" y="279.3" width="1.6" height="6.4" fill="#1a7f37"/>
<line x1="250.8" y1="275.7" x2="250.8" y2="280.6" stroke="#1a7f37"/>
<rect x="250.0" y="276.8" width="1.6" height="2.3" fill="#1a7f37"/>
<line x1="253.1" y1="275.3" x2="253.1" y2="278.2" stroke="#1a7f37"/>
<rect x="252.3" y="276.3" width="1.6" height="0.8" fill="#1a7f37"/>
<line x1="255.3" y1="275.7" x2="255.3" y2="280.6" stroke="#cf222e"/>
<rect x="254.5" y="275.9" width="1.6" height="4.0" fill="#cf222e"/>
<line x1="257.5" y1="270.2" x2="257.5" y2="280.1" stroke="#1a7f37"/>
<rect x="256.7" y="270.4" width="1.6" height="9.3" fill="#1a7f37"/>
<line x1="259.8" y1="270.4" x2="259.8" y2="280.6" stroke="#cf222e"/>
<rect x="259.0" y="270.4" width="1.6" height="9.3" fill="#cf222e"/>
<line x1="262.0" y1="278.2" x2="262.0" y2="288.2" stroke="#cf222e"/>
<rect x="261.2" y="278.2" width="1.6" height="9.8" fill="#cf222e"/>
<line x1="264.2" y1="285.9" x2="264.2" y2="293.1" stroke="#cf222e"/>
<rect x="263.5" y="285.9" width="1.6" height="3.6" fill="#cf222e"/>
<line x1="266.5" y1="285.7" x2="266.5" y2="293.1" stroke="#cf222e"/>
<rect x="265.7" y="290.6" width="1.6" height="1.7" fill="#cf222e"/>
<line x1="268.7" y1="286.9" x2="268.7" y2="294.4" stroke="#cf222e"/>
<rect x="267.9" y="291.2" width="1.6" height="0.8" fill="#cf222e"/>
<line x1="270.9" y1="276.1" x2="270.9" y2="292.5" stroke="#cf222e"/>
<rect x="270.2" y="278.0" width="1.6" height="0.8" fill="#cf222e"/>
<line x1="273.2" y1="280.1" x2="273.2" y2="289.9" stroke="#cf222e"/>
<rect x="272.4" y="280.1" width="1.6" height="9.8" fill="#cf222e"/>
<line x1="275.4" y1="277.0" x2="275.4" y2="291.2" stroke="#1a7f37"/>
<rect x="274.6" y="277.6" width="1.6" height="13.6" fill="#1a7f37"/>
<line x1="277.7" y1="270.2" x2="277.7" y2="280.8" stroke="#1a7f37"/>
<rect x="276.9" y="274.6" width="1.6" height="5.1" fill="#1a7f37"/>
<line x1="373.8" y1="261.0" x2="373.8" y2="275.1" stroke="#1a7f37"/>
<rect x="373.0" y="265.3" width="1.6" height="1.3" fill="#1a7f37"/>
<line x1="376.0" y1="251.3" x2="376.0" y2="268.3" stroke="#1a7f37"/>
<rect x="375.2" y="252.5" width="1.6" height="12.3" fill="#1a7f37"/>
<line x1="378.3" y1="246.0" x2="378.3" y2="254.7" stroke="#1a7f37"/>
<rect x="377.5" y="248.9" width="1.6" height="3.2" fill="#1a7f37"/>
<line x1="380.5" y1="248.7" x2="380.5" y2="254.9" stroke="#cf222e"/>
<rect x="379.7" y="249.6" width="1.6" height="2.5" fill="#cf222e"/>
<line x1="382.7" y1="246.4" x2="382.7" y2="254.0" stroke="#1a7f37"/>
<rect x="382.0" y="250.6" width="1.6" height="2.3" fill="#1a7f37"/>
<line x1="385.0" y1="247.0" x2="385.0" y2="256.2" stroke="#cf222e"/>
<rect x="384.2" y="251.3" width="1.6" height="4.9" fill="#cf222e"/>
<line x1="387.2" y1="250.2" x2="387.2" y2="260.2" stroke="#1a7f37"/>
<rect x="386.4" y="252.1" width="1.6" height="1.7" fill="#1a7f37"/>
<line x1="389.4" y1="247.0" x2="389.4" y2="253.0" stroke="#1a7f37"/>
<rect x="388.7" y="250.0" width="1.6" height="2.5" fill="#1a7f37"/>
<line x1="391.7" y1="241.7" x2="391.7" y2="250.0" stroke="#1a7f37"/>
<rect x="390.9" y="241.7" width="1.6" height="8.3" fill="#1a7f37"/>
<line x1="393.9" y1="241.9" x2="393.9" y2="249.6" stroke="#cf222e"/>
<rect x="393.1" y="241.9" width="1.6" height="6.6" fill="#cf222e"/>
<line x1="396.2" y1="245.7" x2="396.2" y2="256.8" stroke="#1a7f37"/>
<rect x="395.4" y="246.2" width="1.6" height="2.3" fill="#1a7f37"/>
<line x1="398.4" y1="245.1" x2="398.4" y2="254.5" stroke="#1a7f37"/>
<rect x="397.6" y="245.7" width="1.6" height="1.7" fill="#1a7f37"/>
<line x1="400.6" y1="240.9" x2="400.6" y2="258.9" stroke="#cf222e"/>
<rect x="399.8" y="245.1" width="1.6" height="5.9" fill="#cf222e"/>
<line x1="402.9" y1="243.4" x2="402.9" y2="265.9" stroke="#cf222e"/>
<rect x="402.1" y="249.6" width="1.6" height="14.4" fill="#cf222e"/>
<line x1="405.1" y1="244.7" x2="405.1" y2="268.3" stroke="#1a7f37"/>
<rect x="404.3" y="245.7" width="1.6" height="18.3" fill="#1a7f37"/>
<line x1="407.3" y1="243.4" x2="407.3" y2="259.5" stroke="#cf222e"/>
<rect x="406.6" y="247.2" width="1.6" height="11.9" fill="#cf222e"/>
<line x1="409.6" y1="255.5" x2="409.6" y2="264.6" stroke="#cf222e"/>
<rect x="408.8" y="259.1" width="1.6" height="1.9" fill="#cf222e"/>
<line x1="411.8" y1="259.8" x2="411.8" y2="267.0" stroke="#cf222e"/>
<rect x="411.0" y="260.2" width="1.6" height="3.8" fill="#cf222e"/>
<line x1="414.0" y1="253.8" x2="414.0" y2="265.5" stroke="#1a7f37"/>
<rect x="413.3" y="258.3" width="1.6" height="6.2" fill="#1a7f37"/>
<line x1="416.3" y1="251.3" x2="416.3" y2="260.2" stroke="#cf222e"/>
<rect x="415.5" y="258.1" width="1.6" height="1.3" fill="#cf222e"/>
<line x1="418.5" y1="255.1" x2="418.5" y2="264.0" stroke="#1a7f37"/>
<rect x="417.7" y="255.7" width="1.6" height="3.6" fill="#1a7f37"/>
<line x1="420.7" y1="244.0" x2="420.7" y2="254.7" stroke="#1a7f37"/>
<rect x="420.0" y="248.7" width="1.6" height="5.9" fill="#1a7f37"/>
<line x1="423.0" y1="230.9" x2="423.0" y2="251.7" stroke="#1a7f37"/>
<rect x="422.2" y="234.9" width="1.6" height="13.8" fill="#1a7f37"/>
<line x1="425.2" y1="233.0" x2="425.2" y2="251.9" stroke="#cf222e"/>
<rect x="424.4" y="234.9" width="1.6" height="17.0" fill="#cf222e"/>
<line x1="427.5" y1="231.9" x2="427.5" y2="251.7" stroke="#1a7f37"/>
<rect x="426.7" y="233.2" width="1.6" height="15.9" fill="#1a7f37"/>
<line x1="429.7" y1="231.3" x2="429.7" y2="237.5" stroke="#cf222e"/>
<rect x="428.9" y="233.2" width="1.6" height="2.3" fill="#cf222e"/>
<line x1="431.9" y1="227.9" x2="431.9" y2="249.6" stroke="#cf222e"/>
<rect x="431.1" y="235.6" width="1.6" height="13.4" fill="#cf222e"/>
<line x1="434.2" y1="234.3" x2="434.2" y2="250.6" stroke="#1a7f37"/>
<rect x="433.4" y="244.5" width="1.6" height="4.2" fill="#1a7f37"/>
<line x1="436.4" y1="234.7" x2="436.4" y2="255.9" stroke="#cf222e"/>
<rect x="435.6" y="244.9" width="1.6" height="11.0" fill="#cf222e"/>
<line x1="438.6" y1="255.9" x2="438.6" y2="275.9" stroke="#cf222e"/>
<rect x="437.9" y="255.9" width="1.6" height="9.8" fill="#cf222e"/>
<line x1="440.9" y1="260.6" x2="440.9" y2="272.9" stroke="#cf222e"/>
<rect x="440.1" y="266.3" width="1.6" height="3.2" fill="#cf222e"/>
<line x1="443.1" y1="268.7" x2="443.1" y2="289.1" stroke="#cf222e"/>
<rect x="442.3" y="269.5" width="1.6" height="15.1" fill="#cf222e"/>
<line x1="445.3" y1="271.7" x2="445.3" y2="301.4" stroke="#1a7f37"/>
<rect x="444.6" y="271.7" width="1.6" height="13.0" fill="#1a7f37"/>
<line x1="447.6" y1="260.0" x2="447.6" y2="271.9" stroke="#1a7f37"/>
<rect x="446.8" y="269.5" width="1.6" height="2.3" fill="#1a7f37"/>
<line x1="449.8" y1="269.5" x2="449.8" y2="302.2" stroke="#cf222e"/>
<rect x="449.0" y="270.0" width="1.6" height="31.4" fill="#cf222e"/>
<line x1="452.1" y1="272.1" x2="452.1" y2="301.0" stroke="#1a7f37"/>
<rect x="451.3" y="272.1" width="1.6" height="28.2" fill="#1a7f37"/>
<line x1="454.3" y1="270.4" x2="454.3" y2="284.0" stroke="#cf222e"/>
<rect x="453.5" y="272.1" width="1.6" height="3.4" fill="#cf222e"/>
<line x1="456.5" y1="265.9" x2="456.5" y2="281.6" stroke="#cf222e"/>
<rect x="455.7" y="275.5" width="1.6" height="2.3" fill="#cf222e"/>
<line x1="458.8" y1="261.9" x2="458.8" y2="280.6" stroke="#1a7f37"/>
<rect x="458.0" y="272.1" width="1.6" height="5.7" fill="#1a7f37"/>
<line x1="461.0" y1="272.1" x2="461.0" y2="285.7" stroke="#cf222e"/>
<rect x="460.2" y="272.1" width="1.6" height="2.1" fill="#cf222e"/>
<line x1="463.2" y1="271.7" x2="463.2" y2="292.0" stroke="#cf222e"/>
<rect x="462.4" y="273.6" width="1.6" height="8.7" fill="#cf222e"/>
<line x1="465.5" y1="272.9" x2="465.5" y2="285.7" stroke="#1a7f37"/>
<rect x="464.7" y="281.0" width="1.6" height="1.3" fill="#1a7f37"/>
<line x1="467.7" y1="267.4" x2="467.7" y2="286.5" stroke="#1a7f37"/>
<rect x="466.9" y="267.4" width="1.6" height="13.6" fill="#1a7f37"/>
<line x1="469.9" y1="251.9" x2="469.9" y2="268.5" stroke="#1a7f37"/>
<rect x="469.2" y="256.4" width="1.6" height="11.0" fill="#1a7f37"/>
<line x1="472.2" y1="253.2" x2="472.2" y2="266.1" stroke="#1a7f37"/>
<rect x="471.4" y="254.2" width="1.6" height="1.9" fill="#1a7f37"/>
<line x1="474.4" y1="245.3" x2="474.4" y2="274.4" stroke="#cf222e"/>
<rect x="473.6" y="254.2" width="1.6" height="19.3" fill="#cf222e"/>
<line x1="476.6" y1="265.3" x2="476.6" y2="279.1" stroke="#1a7f37"/>
<rect x="475.9" y="272.3" width="1.6" height="1.3" fill="#1a7f37"/>
<line x1="478.9" y1="265.9" x2="478.9" y2="283.5" stroke="#cf222e"/>
<rect x="478.1" y="271.9" width="1.6" height="11.5" fill="#cf222e"/>
<line x1="481.1" y1="275.1" x2="481.1" y2="293.3" stroke="#cf222e"/>
<rect x="480.3" y="284.0" width="1.6" height="0.8" fill="#cf222e"/>
<line x1="483.4" y1="279.3" x2="483.4" y2="293.7" stroke="#cf222e"/>
<rect x="482.6" y="285.2" width="1.6" height="0.8" fill="#cf222e"/>
<line x1="485.6" y1="282.1" x2="485.6" y2="289.3" stroke="#cf222e"/>
<rect x="484.8" y="285.9" width="1.6" height="1.5" fill="#cf222e"/>
<line x1="487.8" y1="282.5" x2="487.8" y2="297.1" stroke="#cf222e"/>
<rect x="487.0" y="287.2" width="1.6" height="5.5" fill="#cf222e"/>
<line x1="490.1" y1="278.9" x2="490.1" y2="292.5" stroke="#1a7f37"/>
<rect x="489.3" y="284.4" width="1.6" height="8.1" fill="#1a7f37"/>
<line x1="492.3" y1="277.8" x2="492.3" y2="287.4" stroke="#1a7f37"/>
<rect x="491.5" y="282.9" width="1.6" height="1.7" fill="#1a7f37"/>
<line x1="494.5" y1="278.0" x2="494.5" y2="286.1" stroke="#1a7f37"/>
<rect x="493.8" y="280.8" width="1.6" height="2.1" fill="#1a7f37"/>
<line x1="496.8" y1="265.1" x2="496.8" y2="289.1" stroke="#1a7f37"/>
<rect x="496.0" y="272.1" width="1.6" height="8.3" fill="#1a7f37"/>
<line x1="499.0" y1="264.9" x2="499.0" y2="277.4" stroke="#cf222e"/>
<rect x="498.2" y="272.1" width="1.6" height="3.4" fill="#cf222e"/>
<line x1="501.2" y1="256.4" x2="501.2" y2="277.6" stroke="#1a7f37"/>
<rect x="500.5" y="258.5" width="1.6" height="16.6" fill="#1a7f37"/>
<line x1="503.5" y1="258.3" x2="503.5" y2="272.5" stroke="#cf222e"/>
<rect x="502.7" y="258.5" width="1.6" height="14.0" fill="#cf222e"/>
<line x1="505.7" y1="255.5" x2="505.7" y2="271.7" stroke="#1a7f37"/>
<rect x="504.9" y="256.8" width="1.6" height="14.7" fill="#1a7f37"/>
<line x1="507.9" y1="251.7" x2="507.9" y2="268.0" stroke="#cf222e"/>
<rect x="507.2" y="256.6" width="1.6" height="10.8" fill="#cf222e"/>
<line x1="510.2" y1="264.0" x2="510.2" y2="280.4" stroke="#cf222e"/>
<rect x="509.4" y="267.4" width="1.6" height="10.2" fill="#cf222e"/>
<line x1="512.4" y1="258.1" x2="512.4" y2="286.5" stroke="#cf222e"/>
<rect x="511.6" y="277.4" width="1.6" height="9.1" fill="#cf222e"/>
<line x1="514.7" y1="275.1" x2="514.7" y2="300.1" stroke="#cf222e"/>
<rect x="513.9" y="285.2" width="1.6" height="2.3" fill="#cf222e"/>
<line x1="516.9" y1="277.4" x2="516.9" y2="301.0" stroke="#cf222e"/>
<rect x="516.1" y="287.6" width="1.6" height="5.7" fill="#cf222e"/>
<line x1="519.1" y1="266.8" x2="519.1" y2="294.2" stroke="#1a7f37"/>
<rect x="518.3" y="267.8" width="1.6" height="25.9" fill="#1a7f37"/>
<line x1="521.4" y1="265.7" x2="521.4" y2="283.5" stroke="#cf222e"/>
<rect x="520.6" y="267.8" width="1.6" height="11.9" fill="#cf222e"/>
<line x1="523.6" y1="272.9" x2="523.6" y2="281.6" stroke="#cf222e"/>
<rect x="522.8" y="279.3" width="1.6" height="2.1" fill="#cf222e"/>
<line x1="525.8" y1="256.8" x2="525.8" y2="282.1" stroke="#1a7f37"/>
<rect x="525.1" y="263.6" width="1.6" height="18.5" fill="#1a7f37"/>
<line x1="528.1" y1="250.8" x2="528.1" y2="265.7" stroke="#1a7f37"/>
<rect x="527.3" y="259.8" width="1.6" height="3.8" fill="#1a7f37"/>
<line x1="530.3" y1="233.0" x2="530.3" y2="261.7" stroke="#1a7f37"/>
<rect x="529.5" y="247.7" width="1.6" height="10.0" fill="#1a7f37"/>
<line x1="532.5" y1="234.1" x2="532.5" y2="255.9" stroke="#cf222e"/>
<rect x="531.8" y="247.4" width="1.6" height="5.9" fill="#cf222e"/>
<line x1="534.8" y1="244.3" x2="534.8" y2="257.9" stroke="#1a7f37"/>
<rect x="534.0" y="250.2" width="1.6" height="3.2" fill="#1a7f37"/>
<line x1="537.0" y1="248.5" x2="537.0" y2="253.0" stroke="#cf222e"/>
<rect x="536.2" y="250.2" width="1.6" height="1.7" fill="#cf222e"/>
<line x1="539.3" y1="241.9" x2="539.3" y2="251.9" stroke="#1a7f37"/>
<rect x="538.5" y="249.1" width="1.6" height="2.8" fill="#1a7f37"/>
<line x1="541.5" y1="246.2" x2="541.5" y2="254.2" stroke="#cf222e"/>
<rect x="540.7" y="250.0" width="1.6" height="0.8" fill="#cf222e"/>
<line x1="543.7" y1="238.1" x2="543.7" y2="252.1" stroke="#1a7f37"/>
<rect x="542.9" y="244.0" width="1.6" height="7.6" fill="#1a7f37"/>
<line x1="546.0" y1="243.8" x2="546.0" y2="252.1" stroke="#cf222e"/>
<rect x="545.2" y="244.0" width="1.6" height="4.7" fill="#cf222e"/>
<line x1="548.2" y1="238.1" x2="548.2" y2="251.3" stroke="#1a7f37"/>
<rect x="547.4" y="247.0" width="1.6" height="3.6" fill="#1a7f37"/>
<line x1="550.4" y1="243.8" x2="550.4" y2="258.1" stroke="#cf222e"/>
<rect x="549.6" y="246.8" width="1.6" height="8.3" fill="#cf222e"/>
<line x1="552.7" y1="246.0" x2="552.7" y2="261.0" stroke="#1a7f37"/>
<rect x="551.9" y="252.5" width="1.6" height="2.8" fill="#1a7f37"/>
<line x1="554.9" y1="252.3" x2="554.9" y2="270.8" stroke="#cf222e"/>
<rect x="554.1" y="252.3" width="1.6" height="11.5" fill="#cf222e"/>
<line x1="557.1" y1="255.9" x2="557.1" y2="267.0" stroke="#1a7f37"/>
<rect x="556.4" y="255.9" width="1.6" height="4.7" fill="#1a7f37"/>
<line x1="559.4" y1="238.5" x2="559.4" y2="257.2" stroke="#1a7f37"/>
<rect x="558.6" y="242.1" width="1.6" height="14.9" fill="#1a7f37"/>
<line x1="561.6" y1="241.5" x2="561.6" y2="264.4" stroke="#cf222e"/>
<rect x="560.8" y="242.8" width="1.6" height="13.4" fill="#cf222e"/>
<line x1="563.8" y1="249.6" x2="563.8" y2="263.4" stroke="#cf222e"/>
<rect x="563.1" y="256.4" width="1.6" height="3.0" fill="#cf222e"/>
<line x1="566.1" y1="253.0" x2="566.1" y2="268.3" stroke="#cf222e"/>
<rect x="565.3" y="259.3" width="1.6" height="6.2" fill="#cf222e"/>
<line x1="568.3" y1="257.4" x2="568.3" y2="269.7" stroke="#1a7f37"/>
<rect x="567.5" y="257.4" width="1.6" height="8.1" fill="#1a7f37"/>
<line x1="570.6" y1="254.2" x2="570.6" y2="274.6" stroke="#cf222e"/>
<rect x="569.8" y="257.9" width="1.6" height="16.4" fill="#cf222e"/>
<line x1="572.8" y1="264.2" x2="572.8" y2="280.4" stroke="#1a7f37"/>
<rect x="572.0" y="270.4" width="1.6" height="3.8" fill="#1a7f37"/>
<line x1="575.0" y1="262.1" x2="575.0" y2="272.1" stroke="#1a7f37"/>
<rect x="574.2" y="265.3" width="1.6" height="4.9" fill="#1a7f37"/>
<line x1="577.3" y1="252.1" x2="577.3" y2="265.3" stroke="#1a7f37"/>
<rect x="576.5" y="257.9" width="1.6" height="6.6" fill="#1a7f37"/>
<line x1="579.5" y1="257.4" x2="579.5" y2="265.7" stroke="#cf222e"/>
<rect x="578.7" y="257.9" width="1.6" height="4.5" fill="#cf222e"/>
<line x1="581.7" y1="261.0" x2="581.7" y2="271.2" stroke="#1a7f37"/>
<rect x="581.0" y="261.9" width="1.6" height="0.8" fill="#1a7f37"/>
<line x1="584.0" y1="250.2" x2="584.0" y2="261.9" stroke="#1a7f37"/>
<rect x="583.2" y="255.9" width="1.6" height="5.9" fill="#1a7f37"/>
<line x1="586.2" y1="253.0" x2="586.2" y2="260.0" stroke="#cf222e"/>
<rect x="585.4" y="255.9" width="1.6" height="0.8" fill="#cf222e"/>
<line x1="588.4" y1="249.6" x2="588.4" y2="258.9" stroke="#1a7f37"/>
<rect x="587.7" y="256.4" width="1.6" height="0.8" fill="#1a7f37"/>
<line x1="590.7" y1="245.3" x2="590.7" y2="257.2" stroke="#1a7f37"/>
<rect x="589.9" y="254.2" width="1.6" height="2.5" fill="#1a7f37"/>
<line x1="592.9" y1="254.2" x2="592.9" y2="272.7" stroke="#cf222e"/>
<rect x="592.1" y="254.2" width="1.6" height="15.3" fill="#cf222e"/>
<line x1="595.1" y1="265.1" x2="595.1" y2="289.5" stroke="#1a7f37"/>
<rect x="594.4" y="265.7" width="1.6" height="4.0" fill="#1a7f37"/>
<line x1="597.4" y1="261.0" x2="597.4" y2="281.4" stroke="#cf222e"/>
<rect x="596.6" y="265.7" width="1.6" height="9.8" fill="#cf222e"/>
<line x1="599.6" y1="270.4" x2="599.6" y2="279.3" stroke="#cf222e"/>
<rect x="598.8" y="276.8" width="1.6" height="0.8" fill="#cf222e"/>
<line x1="601.9" y1="260.8" x2="601.9" y2="277.6" stroke="#1a7f37"/>
<rect x="601.1" y="261.0" width="1.6" height="16.6" fill="#1a7f37"/>
<line x1="604.1" y1="248.3" x2="604.1" y2="264.4" stroke="#1a7f37"/>
<rect x="603.3" y="249.1" width="1.6" height="11.9" fill="#1a7f37"/>
<line x1="606.3" y1="249.1" x2="606.3" y2="258.9" stroke="#cf222e"/>
<rect x="605.5" y="250.2" width="1.6" height="7.0" fill="#cf222e"/>
<line x1="608.6" y1="251.3" x2="608.6" y2="266.8" stroke="#cf222e"/>
<rect x="607.8" y="257.2" width="1.6" height="9.6" fill="#cf222e"/>
<line x1="610.8" y1="254.5" x2="610.8" y2="266.8" stroke="#1a7f37"/>
<rect x="610.0" y="257.2" width="1.6" height="9.6" fill="#1a7f37"/>
<line x1="613.0" y1="246.4" x2="613.0" y2="270.4" stroke="#cf222e"/>
<rect x="612.3" y="257.4" width="1.6" height="1.5" fill="#cf222e"/>
<line x1="615.3" y1="241.7" x2="615.3" y2="269.5" stroke="#1a7f37"/>
<rect x="614.5" y="260.6" width="1.6" height="0.8" fill="#1a7f37"/>
<line x1="617.5" y1="251.5" x2="617.5" y2="266.8" stroke="#cf222e"/>
<rect x="616.7" y="258.7" width="1.6" height="8.1" fill="#cf222e"/>
<line x1="619.7" y1="264.0" x2="619.7" y2="286.1" stroke="#cf222e"/>
<rect x="619.0" y="266.8" width="1.6" height="11.5" fill="#cf222e"/>
<line x1="622.0" y1="260.2" x2="622.0" y2="285.7" stroke="#1a7f37"/>
<rect x="621.2" y="273.4" width="1.6" height="5.5" fill="#1a7f37"/>
<line x1="624.2" y1="255.9" x2="624.2" y2="275.1" stroke="#1a7f37"/>
<rect x="623.4" y="261.0" width="1.6" height="12.7" fill="#1a7f37"/>
<line x1="626.5" y1="254.9" x2="626.5" y2="271.0" stroke="#cf222e"/>
<rect x="625.7" y="261.0" width="1.6" height="1.9" fill="#cf222e"/>
<line x1="628.7" y1="254.5" x2="628.7" y2="274.8" stroke="#cf222e"/>
<rect x="627.9" y="262.7" width="1.6" height="1.9" fill="#cf222e"/>
<line x1="630.9" y1="254.0" x2="630.9" y2="264.9" stroke="#1a7f37"/>
<rect x="630.1" y="258.9" width="1.6" height="4.2" fill="#1a7f37"/>
<line x1="633.2" y1="249.4" x2="633.2" y2="262.1" stroke="#1a7f37"/>
<rect x="632.4" y="253.6" width="1.6" height="4.9" fill="#1a7f37"/>
<line x1="635.4" y1="249.1" x2="635.4" y2="262.9" stroke="#cf222e"/>
<rect x="634.6" y="252.8" width="1.6" height="3.8" fill="#cf222e"/>
<line x1="637.6" y1="249.8" x2="637.6" y2="263.2" stroke="#1a7f37"/>
<rect x="636.8" y="256.4" width="1.6" height="0.8" fill="#1a7f37"/>
<line x1="639.9" y1="254.5" x2="639.9" y2="267.8" stroke="#cf222e"/>
<rect x="639.1" y="256.4" width="1.6" height="4.7" fill="#cf222e"/>
<line x1="642.1" y1="251.7" x2="642.1" y2="264.2" stroke="#1a7f37"/>
<rect x="641.3" y="256.4" width="1.6" height="4.7" fill="#1a7f37"/>
<line x1="644.3" y1="246.6" x2="644.3" y2="264.6" stroke="#cf222e"/>
<rect x="643.6" y="256.8" width="1.6" height="3.2" fill="#cf222e"/>
<line x1="646.6" y1="250.2" x2="646.6" y2="260.2" stroke="#1a7f37"/>
<rect x="645.8" y="254.9" width="1.6" height="5.3" fill="#1a7f37"/>
<line x1="648.8" y1="247.7" x2="648.8" y2="261.9" stroke="#1a7f37"/>
<rect x="648.0" y="250.4" width="1.6" height="5.3" fill="#1a7f37"/>
<line x1="651.0" y1="241.5" x2="651.0" y2="255.1" stroke="#1a7f37"/>
<rect x="650.3" y="246.0" width="1.6" height="4.5" fill="#1a7f37"/>
<line x1="653.3" y1="229.0" x2="653.3" y2="250.6" stroke="#1a7f37"/>
<rect x="652.5" y="236.8" width="1.6" height="10.6" fill="#1a7f37"/>
<line x1="655.5" y1="228.3" x2="655.5" y2="241.1" stroke="#1a7f37"/>
<rect x="654.7" y="235.3" width="1.6" height="0.8" fill="#1a7f37"/>
<line x1="657.8" y1="229.2" x2="657.8" y2="250.6" stroke="#cf222e"/>
<rect x="657.0" y="234.9" width="1.6" height="15.5" fill="#cf222e"/>
<line x1="660.0" y1="248.9" x2="660.0" y2="262.7" stroke="#1a7f37"/>
<rect x="659.2" y="248.9" width="1.6" height="1.5" fill="#1a7f37"/>
<line x1="662.2" y1="240.9" x2="662.2" y2="253.6" stroke="#cf222e"/>
<rect x="661.4" y="251.1" width="1.6" height="2.3" fill="#cf222e"/>
<line x1="664.5" y1="231.3" x2="664.5" y2="255.5" stroke="#1a7f37"/>
<rect x="663.7" y="236.2" width="1.6" height="16.8" fill="#1a7f37"/>
<line x1="666.7" y1="232.6" x2="666.7" y2="246.0" stroke="#cf222e"/>
<rect x="665.9" y="235.8" width="1.6" height="1.1" fill="#cf222e"/>
<line x1="668.9" y1="228.5" x2="668.9" y2="240.0" stroke="#1a7f37"/>
<rect x="668.2" y="232.2" width="1.6" height="4.7" fill="#1a7f37"/>
<line x1="671.2" y1="218.8" x2="671.2" y2="232.2" stroke="#1a7f37"/>
<rect x="670.4" y="228.3" width="1.6" height="3.8" fill="#1a7f37"/>
<line x1="673.4" y1="220.5" x2="673.4" y2="232.6" stroke="#1a7f37"/>
<rect x="672.6" y="222.2" width="1.6" height="6.4" fill="#1a7f37"/>
<line x1="675.6" y1="212.2" x2="675.6" y2="230.9" stroke="#1a7f37"/>
<rect x="674.9" y="214.7" width="1.6" height="11.3" fill="#1a7f37"/>
<line x1="677.9" y1="199.5" x2="677.9" y2="227.9" stroke="#cf222e"/>
<rect x="677.1" y="214.3" width="1.6" height="6.6" fill="#cf222e"/>
<line x1="680.1" y1="210.5" x2="680.1" y2="227.5" stroke="#1a7f37"/>
<rect x="679.3" y="219.2" width="1.6" height="3.2" fill="#1a7f37"/>
<line x1="682.3" y1="213.7" x2="682.3" y2="227.9" stroke="#cf222e"/>
<rect x="681.6" y="218.6" width="1.6" height="7.0" fill="#cf222e"/>
<line x1="684.6" y1="220.3" x2="684.6" y2="232.4" stroke="#cf222e"/>
<rect x="683.8" y="225.8" width="1.6" height="1.1" fill="#cf222e"/>
<line x1="686.8" y1="212.2" x2="686.8" y2="227.9" stroke="#1a7f37"/>
<rect x="686.0" y="212.8" width="1.6" height="13.8" fill="#1a7f37"/>
<line x1="689.1" y1="200.3" x2="689.1" y2="218.1" stroke="#cf222e"/>
<rect x="688.3" y="214.1" width="1.6" height="2.3" fill="#cf222e"/>
<line x1="691.3" y1="209.6" x2="691.3" y2="220.0" stroke="#1a7f37"/>
<rect x="690.5" y="212.0" width="1.6" height="4.5" fill="#1a7f37"/>
<line x1="693.5" y1="210.9" x2="693.5" y2="218.8" stroke="#cf222e"/>
<rect x="692.7" y="210.9" width="1.6" height="0.8" fill="#cf222e"/>
<line x1="695.8" y1="201.8" x2="695.8" y2="215.0" stroke="#1a7f37"/>
<rect x="695.0" y="207.7" width="1.6" height="2.5" fill="#1a7f37"/>
<line x1="698.0" y1="209.6" x2="698.0" y2="228.1" stroke="#cf222e"/>
<rect x="697.2" y="209.6" width="1.6" height="15.7" fill="#cf222e"/>
<line x1="700.2" y1="224.1" x2="700.2" y2="235.6" stroke="#cf222e"/>
<rect x="699.5" y="225.4" width="1.6" height="4.2" fill="#cf222e"/>
<line x1="702.5" y1="210.1" x2="702.5" y2="230.7" stroke="#1a7f37"/>
<rect x="701.7" y="211.3" width="1.6" height="18.3" fill="#1a7f37"/>
<line x1="704.7" y1="203.3" x2="704.7" y2="226.6" stroke="#cf222e"/>
<rect x="703.9" y="211.8" width="1.6" height="7.0" fill="#cf222e"/>
<line x1="706.9" y1="211.3" x2="706.9" y2="221.1" stroke="#cf222e"/>
<rect x="706.2" y="219.0" width="1.6" height="0.8" fill="#cf222e"/>
<line x1="709.2" y1="219.6" x2="709.2" y2="229.6" stroke="#cf222e"/>
<rect x="708.4" y="220.5" width="1.6" height="8.3" fill="#cf222e"/>
<line x1="711.4" y1="213.0" x2="711.4" y2="231.1" stroke="#1a7f37"/>
<rect x="710.6" y="216.2" width="1.6" height="12.5" fill="#1a7f37"/>
<line x1="713.7" y1="211.6" x2="713.7" y2="220.5" stroke="#cf222e"/>
<rect x="712.9" y="216.2" width="1.6" height="2.8" fill="#cf222e"/>
<line x1="715.9" y1="208.8" x2="715.9" y2="220.3" stroke="#1a7f37"/>
<rect x="715.1" y="211.8" width="1.6" height="6.2" fill="#1a7f37"/>
<line x1="718.1" y1="211.8" x2="718.1" y2="222.0" stroke="#cf222e"/>
<rect x="717.3" y="212.0" width="1.6" height="4.7" fill="#cf222e"/>
<line x1="720.4" y1="213.0" x2="720.4" y2="223.0" stroke="#cf222e"/>
<rect x="719.6" y="215.6" width="1.6" height="7.2" fill="#cf222e"/>
<line x1="722.6" y1="203.3" x2="722.6" y2="221.7" stroke="#1a7f37"/>
<rect x="721.8" y="215.2" width="1.6" height="5.9" fill="#1a7f37"/>
<line x1="724.8" y1="184.4" x2="724.8" y2="215.2" stroke="#1a7f37"/>
<rect x="724.0" y="187.8" width="1.6" height="27.4" fill="#1a7f37"/>
<line x1="727.1" y1="182.2" x2="727.1" y2="193.3" stroke="#cf222e"/>
<rect x="726.3" y="189.5" width="1.6" height="0.8" fill="#cf222e"/>
<line x1="729.3" y1="181.2" x2="729.3" y2="202.4" stroke="#cf222e"/>
<rect x="728.5" y="189.9" width="1.6" height="11.0" fill="#cf222e"/>
<line x1="731.5" y1="197.5" x2="731.5" y2="213.9" stroke="#cf222e"/>
<rect x="730.8" y="201.1" width="1.6" height="10.0" fill="#cf222e"/>
<line x1="733.8" y1="192.2" x2="733.8" y2="219.4" stroke="#1a7f37"/>
<rect x="733.0" y="195.8" width="1.6" height="15.9" fill="#1a7f37"/>
<line x1="736.0" y1="193.7" x2="736.0" y2="207.9" stroke="#cf222e"/>
<rect x="735.2" y="198.0" width="1.6" height="4.5" fill="#cf222e"/>
<line x1="738.2" y1="193.1" x2="738.2" y2="211.3" stroke="#cf222e"/>
<rect x="737.5" y="202.8" width="1.6" height="1.5" fill="#cf222e"/>
<line x1="740.5" y1="201.6" x2="740.5" y2="221.7" stroke="#cf222e"/>
<rect x="739.7" y="205.4" width="1.6" height="15.1" fill="#cf222e"/>
<line x1="742.7" y1="213.3" x2="742.7" y2="228.5" stroke="#cf222e"/>
<rect x="741.9" y="221.3" width="1.6" height="5.9" fill="#cf222e"/>
<line x1="745.0" y1="214.1" x2="745.0" y2="228.5" stroke="#1a7f37"/>
<rect x="744.2" y="215.0" width="1.6" height="13.0" fill="#1a7f37"/>
<line x1="747.2" y1="207.7" x2="747.2" y2="218.1" stroke="#cf222e"/>
<rect x="746.4" y="214.3" width="1.6" height="2.1" fill="#cf222e"/>
<line x1="749.4" y1="213.3" x2="749.4" y2="226.8" stroke="#cf222e"/>
<rect x="748.6" y="216.7" width="1.6" height="3.2" fill="#cf222e"/>
<line x1="751.7" y1="214.3" x2="751.7" y2="223.7" stroke="#1a7f37"/>
<rect x="750.9" y="216.4" width="1.6" height="4.2" fill="#1a7f37"/>
<line x1="753.9" y1="200.5" x2="753.9" y2="226.0" stroke="#cf222e"/>
<rect x="753.1" y="216.4" width="1.6" height="1.3" fill="#cf222e"/>
<line x1="756.1" y1="214.5" x2="756.1" y2="239.6" stroke="#cf222e"/>
<rect x="755.4" y="217.7" width="1.6" height="21.7" fill="#cf222e"/>
<line x1="758.4" y1="198.2" x2="758.4" y2="239.2" stroke="#1a7f37"/>
<rect x="757.6" y="198.6" width="1.6" height="39.9" fill="#1a7f37"/>
<line x1="760.6" y1="161.6" x2="760.6" y2="204.5" stroke="#1a7f37"/>
<rect x="759.8" y="163.6" width="1.6" height="31.2" fill="#1a7f37"/>
<line x1="762.8" y1="159.3" x2="762.8" y2="197.1" stroke="#1a7f37"/>
<rect x="762.1" y="159.3" width="1.6" height="4.2" fill="#1a7f37"/>
<line x1="765.1" y1="83.3" x2="765.1" y2="161.4" stroke="#1a7f37"/>
<rect x="764.3" y="87.7" width="1.6" height="73.5" fill="#1a7f37"/>
<line x1="767.3" y1="79.3" x2="767.3" y2="102.6" stroke="#cf222e"/>
<rect x="766.5" y="86.0" width="1.6" height="14.4" fill="#cf222e"/>
<line x1="769.5" y1="86.5" x2="769.5" y2="124.1" stroke="#cf222e"/>
<rect x="768.8" y="102.6" width="1.6" height="20.2" fill="#cf222e"/>
<line x1="771.8" y1="120.5" x2="771.8" y2="141.5" stroke="#cf222e"/>
<rect x="771.0" y="124.7" width="1.6" height="13.2" fill="#cf222e"/>
<line x1="774.0" y1="122.6" x2="774.0" y2="140.6" stroke="#1a7f37"/>
<rect x="773.2" y="128.7" width="1.6" height="8.9" fill="#1a7f37"/>
<line x1="776.3" y1="99.4" x2="776.3" y2="130.0" stroke="#1a7f37"/>
<rect x="775.5" y="111.5" width="1.6" height="15.3" fill="#1a7f37"/>
<line x1="778.5" y1="96.2" x2="778.5" y2="115.8" stroke="#1a7f37"/>
<rect x="777.7" y="109.8" width="1.6" height="3.6" fill="#1a7f37"/>
<line x1="780.7" y1="96.2" x2="780.7" y2="119.2" stroke="#cf222e"/>
<rect x="779.9" y="109.6" width="1.6" height="8.5" fill="#cf222e"/>
<line x1="783.0" y1="84.3" x2="783.0" y2="124.9" stroke="#1a7f37"/>
<rect x="782.2" y="96.7" width="1.6" height="21.4" fill="#1a7f37"/>
<line x1="785.2" y1="82.7" x2="785.2" y2="100.7" stroke="#1a7f37"/>
<rect x="784.4" y="91.1" width="1.6" height="6.6" fill="#1a7f37"/>
<line x1="787.4" y1="80.7" x2="787.4" y2="102.6" stroke="#cf222e"/>
<rect x="786.7" y="91.1" width="1.6" height="11.3" fill="#cf222e"/>
<line x1="789.7" y1="63.5" x2="789.7" y2="107.5" stroke="#1a7f37"/>
<rect x="788.9" y="74.2" width="1.6" height="28.0" fill="#1a7f37"/>
<line x1="791.9" y1="55.9" x2="791.9" y2="88.8" stroke="#1a7f37"/>
<rect x="791.1" y="59.5" width="1.6" height="14.9" fill="#1a7f37"/>
<line x1="794.1" y1="58.0" x2="794.1" y2="94.1" stroke="#cf222e"/>
<rect x="793.4" y="59.3" width="1.6" height="20.0" fill="#cf222e"/>
<line x1="796.4" y1="73.9" x2="796.4" y2="126.4" stroke="#cf222e"/>
<rect x="795.6" y="79.0" width="1.6" height="45.7" fill="#cf222e"/>
<line x1="798.6" y1="90.1" x2="798.6" y2="131.1" stroke="#1a7f37"/>
<rect x="797.8" y="103.0" width="1.6" height="21.7" fill="#1a7f37"/>
<line x1="800.9" y1="73.3" x2="800.9" y2="114.1" stroke="#1a7f37"/>
<rect x="800.1" y="95.8" width="1.6" height="6.2" fill="#1a7f37"/>
<line x1="803.1" y1="44.0" x2="803.1" y2="94.1" stroke="#1a7f37"/>
<rect x="802.3" y="61.4" width="1.6" height="32.7" fill="#1a7f37"/>
<line x1="805.3" y1="49.7" x2="805.3" y2="73.7" stroke="#cf222e"/>
<rect x="804.5" y="61.2" width="1.6" height="1.5" fill="#cf222e"/>
<line x1="807.6" y1="57.4" x2="807.6" y2="75.6" stroke="#1a7f37"/>
<rect x="806.8" y="61.6" width="1.6" height="0.8" fill="#1a7f37"/>
<line x1="809.8" y1="52.7" x2="809.8" y2="91.4" stroke="#cf222e"/>
<rect x="809.0" y="62.3" width="1.6" height="29.1" fill="#cf222e"/>
<line x1="812.0" y1="83.9" x2="812.0" y2="119.6" stroke="#cf222e"/>
<rect x="811.2" y="91.1" width="1.6" height="21.0" fill="#cf222e"/>
<line x1="814.3" y1="109.4" x2="814.3" y2="127.2" stroke="#cf222e"/>
<rect x="813.5" y="112.2" width="1.6" height="8.5" fill="#cf222e"/>
<line x1="816.5" y1="120.0" x2="816.5" y2="177.8" stroke="#cf222e"/>
<rect x="815.7" y="120.2" width="1.6" height="42.5" fill="#cf222e"/>
<line x1="818.7" y1="136.0" x2="818.7" y2="170.1" stroke="#1a7f37"/>
<rect x="818.0" y="142.7" width="1.6" height="20.0" fill="#1a7f37"/>
<line x1="821.0" y1="133.0" x2="821.0" y2="162.5" stroke="#1a7f37"/>
<rect x="820.2" y="134.7" width="1.6" height="7.4" fill="#1a7f37"/>
<line x1="823.2" y1="132.3" x2="823.2" y2="163.1" stroke="#cf222e"/>
<rect x="822.4" y="134.7" width="1.6" height="24.0" fill="#cf222e"/>
<line x1="825.4" y1="143.4" x2="825.4" y2="171.0" stroke="#1a7f37"/>
<rect x="824.7" y="144.4" width="1.6" height="14.2" fill="#1a7f37"/>
<line x1="827.7" y1="131.5" x2="827.7" y2="162.3" stroke="#cf222e"/>
<rect x="826.9" y="144.2" width="1.6" height="11.0" fill="#cf222e"/>
<line x1="829.9" y1="149.1" x2="829.9" y2="181.4" stroke="#1a7f37"/>
<rect x="829.1" y="151.0" width="1.6" height="4.0" fill="#1a7f37"/>
<line x1="832.2" y1="145.5" x2="832.2" y2="172.1" stroke="#cf222e"/>
<rect x="831.4" y="151.0" width="1.6" height="20.2" fill="#cf222e"/>
<line x1="834.4" y1="146.1" x2="834.4" y2="171.2" stroke="#1a7f37"/>
<rect x="833.6" y="146.1" width="1.6" height="25.1" fill="#1a7f37"/>
<line x1="836.6" y1="146.1" x2="836.6" y2="162.5" stroke="#cf222e"/>
<rect x="835.8" y="146.1" width="1.6" height="7.9" fill="#cf222e"/>
<line x1="838.9" y1="121.1" x2="838.9" y2="154.0" stroke="#1a7f37"/>
<rect x="838.1" y="121.1" width="1.6" height="32.9" fill="#1a7f37"/>
<line x1="841.1" y1="114.7" x2="841.1" y2="137.7" stroke="#1a7f37"/>
<rect x="840.3" y="115.1" width="1.6" height="7.6" fill="#1a7f37"/>
<line x1="843.3" y1="114.9" x2="843.3" y2="139.4" stroke="#cf222e"/>
<rect x="842.6" y="115.1" width="1.6" height="22.3" fill="#cf222e"/>
<line x1="845.6" y1="134.0" x2="845.6" y2="152.3" stroke="#cf222e"/>
<rect x="844.8" y="137.4" width="1.6" height="6.4" fill="#cf222e"/>
<line x1="847.8" y1="127.2" x2="847.8" y2="147.6" stroke="#1a7f37"/>
<rect x="847.0" y="139.1" width="1.6" height="3.8" fill="#1a7f37"/>
<line x1="850.0" y1="129.4" x2="850.0" y2="141.9" stroke="#1a7f37"/>
<rect x="849.3" y="131.7" width="1.6" height="7.4" fill="#1a7f37"/>
<line x1="852.3" y1="122.1" x2="852.3" y2="136.0" stroke="#1a7f37"/>
<rect x="851.5" y="130.9" width="1.6" height="0.8" fill="#1a7f37"/>
<line x1="854.5" y1="118.8" x2="854.5" y2="134.0" stroke="#1a7f37"/>
<rect x="853.7" y="121.5" width="1.6" height="9.3" fill="#1a7f37"/>
<line x1="856.7" y1="112.4" x2="856.7" y2="126.6" stroke="#cf222e"/>
<rect x="856.0" y="121.9" width="1.6" height="0.8" fill="#cf222e"/>
<line x1="859.0" y1="117.7" x2="859.0" y2="129.6" stroke="#1a7f37"/>
<rect x="858.2" y="119.4" width="1.6" height="3.8" fill="#1a7f37"/>
<line x1="861.2" y1="113.2" x2="861.2" y2="122.1" stroke="#1a7f37"/>
<rect x="860.4" y="116.2" width="1.6" height="3.6" fill="#1a7f37"/>
<line x1="863.5" y1="114.9" x2="863.5" y2="127.9" stroke="#cf222e"/>
<rect x="862.7" y="114.9" width="1.6" height="6.2" fill="#cf222e"/>
<line x1="865.7" y1="105.6" x2="865.7" y2="127.2" stroke="#1a7f37"/>
<rect x="864.9" y="107.9" width="1.6" height="12.7" fill="#1a7f37"/>
<line x1="867.9" y1="72.5" x2="867.9" y2="107.9" stroke="#1a7f37"/>
<rect x="867.1" y="76.9" width="1.6" height="31.0" fill="#1a7f37"/>
<line x1="870.2" y1="69.7" x2="870.2" y2="81.0" stroke="#cf222e"/>
<rect x="869.4" y="76.9" width="1.6" height="3.8" fill="#cf222e"/>
<line x1="872.4" y1="74.4" x2="872.4" y2="88.8" stroke="#cf222e"/>
<rect x="871.6" y="80.7" width="1.6" height="6.2" fill="#cf222e"/>
<line x1="874.6" y1="86.7" x2="874.6" y2="109.4" stroke="#cf222e"/>
<rect x="873.9" y="86.9" width="1.6" height="22.3" fill="#cf222e"/>
<line x1="876.9" y1="106.4" x2="876.9" y2="117.3" stroke="#cf222e"/>
<rect x="876.1" y="109.2" width="1.6" height="0.8" fill="#cf222e"/>
<line x1="879.1" y1="85.0" x2="879.1" y2="109.4" stroke="#1a7f37"/>
<rect x="878.3" y="85.0" width="1.6" height="23.8" fill="#1a7f37"/>
<line x1="881.3" y1="79.9" x2="881.3" y2="100.3" stroke="#cf222e"/>
<rect x="880.6" y="83.9" width="1.6" height="16.4" fill="#cf222e"/>
<line x1="883.6" y1="90.7" x2="883.6" y2="102.2" stroke="#1a7f37"/>
<rect x="882.8" y="95.6" width="1.6" height="4.7" fill="#1a7f37"/>
<line x1="885.8" y1="91.8" x2="885.8" y2="114.7" stroke="#cf222e"/>
<rect x="885.0" y="95.6" width="1.6" height="17.8" fill="#cf222e"/>
<line x1="888.1" y1="105.8" x2="888.1" y2="119.6" stroke="#1a7f37"/>
<rect x="887.3" y="112.0" width="1.6" height="1.3" fill="#1a7f37"/>
<line x1="890.3" y1="85.2" x2="890.3" y2="112.6" stroke="#1a7f37"/>
<rect x="889.5" y="94.1" width="1.6" height="17.8" fill="#1a7f37"/>
<line x1="892.5" y1="87.7" x2="892.5" y2="98.4" stroke="#cf222e"/>
<rect x="891.7" y="94.1" width="1.6" height="3.4" fill="#cf222e"/>
<line x1="894.8" y1="72.7" x2="894.8" y2="101.6" stroke="#1a7f37"/>
<rect x="894.0" y="73.7" width="1.6" height="26.3" fill="#1a7f37"/>
<line x1="897.0" y1="69.3" x2="897.0" y2="101.1" stroke="#cf222e"/>
<rect x="896.2" y="74.2" width="1.6" height="20.4" fill="#cf222e"/>
<line x1="899.2" y1="89.7" x2="899.2" y2="106.0" stroke="#1a7f37"/>
<rect x="898.4" y="90.1" width="1.6" height="3.4" fill="#1a7f37"/>
<line x1="901.5" y1="59.3" x2="901.5" y2="100.5" stroke="#1a7f37"/>
<rect x="900.7" y="66.5" width="1.6" height="32.7" fill="#1a7f37"/>
<text x="4" y="48" fill="#555">2003.56</text>
<text x="4" y="336" fill="#555">1989.81</text>
<text x="36.7" y="352" fill="#555">13:00</text>
<text x="63.5" y="352" fill="#555">14:00</text>
<text x="90.4" y="352" fill="#555">15:00</text>
<text x="117.2" y="352" fill="#555">16:00</text>
<text x="144.0" y="352" fill="#555">17:00</text>
<text x="170.9" y="352" fill="#555">18:00</text>
<text x="197.7" y="352" fill="#555">19:00</text>
<text x="224.5" y="352" fill="#555">20:00</text>
<text x="251.4" y="352" fill="#555">21:00</text>
<text x="278.2" y="352" fill="#555">22:00</text>
<text x="305.0" y="352" fill="#555">23:00</text>
<text x="331.8" y="352" fill="#555">00:00</text>
<text x="358.7" y="352" fill="#555">01:00</text>
<text x="385.5" y="352" fill="#555">02:00</text>
<text x="412.3" y="352" fill="#555">03:00</text>
<text x="439.2" y="352" fill="#555">04:00</text>
<text x="466.0" y="352" fill="#555">05:00</text>
<text x="492.8" y="352" fill="#555">06:00</text>
<text x="519.7" y="352" fill="#555">07:00</text>
<text x="546.5" y="352" fill="#555">08:00</text>
<text x="573.3" y="352" fill="#555">09:00</text>
<text x="600.2" y="352" fill="#555">10:00</text>
<text x="627.0" y="352" fill="#555">11:00</text>
<text x="653.8" y="352" fill="#555">12:00</text>
<text x="680.6" y="352" fill="#555">13:00</text>
<text x="707.5" y="352" fill="#555">14:00</text>
<text x="734.3" y="352" fill="#555">15:00</text>
<text x="761.1" y="352" fill="#555">16:00</text>
<text x="788.0" y="352" fill="#555">17:00</text>
<text x="814.8" y="352" fill="#555">18:00</text>
<text x="841.6" y="352" fill="#555">19:00</text>
<text x="868.5" y="352" fill="#555">20:00</text>
<text x="895.3" y="352" fill="#555">21:00</text>
</svg>