<svg xmlns="http://www.w3.org/2000/svg" width="960" height="380" font-family="sans-serif" font-size="11">
<rect width="960" height="380" fill="#ffffff"/>
<text x="44" y="18" font-size="12" fill="#111">M3 EOD LONG | M3-EOD-2022-002 | 2022-07-19 05:00 | net +5.28 USD</text>
<line x1="480.0" y1="44" x2="480.0" y2="336" stroke="#1f6feb" stroke-dasharray="4 3"/>
<line x1="48.5" y1="101.7" x2="48.5" y2="164.4" stroke="#1a7f37"/>
<rect x="45.4" y="109.2" width="6.4" height="53.7" fill="#1a7f37"/>
<line x1="57.6" y1="96.2" x2="57.6" y2="113.6" stroke="#1a7f37"/>
<rect x="54.4" y="106.2" width="6.4" height="3.0" fill="#1a7f37"/>
<line x1="66.7" y1="97.7" x2="66.7" y2="133.5" stroke="#cf222e"/>
<rect x="63.5" y="106.2" width="6.4" height="23.9" fill="#cf222e"/>
<line x1="75.8" y1="121.1" x2="75.8" y2="139.0" stroke="#1a7f37"/>
<rect x="72.6" y="128.6" width="6.4" height="1.5" fill="#1a7f37"/>
<line x1="84.9" y1="119.1" x2="84.9" y2="136.5" stroke="#1a7f37"/>
<rect x="81.7" y="123.1" width="6.4" height="5.5" fill="#1a7f37"/>
<line x1="94.0" y1="115.1" x2="94.0" y2="138.0" stroke="#cf222e"/>
<rect x="90.8" y="123.1" width="6.4" height="0.8" fill="#cf222e"/>
<line x1="103.0" y1="123.6" x2="103.0" y2="161.9" stroke="#cf222e"/>
<rect x="99.9" y="123.6" width="6.4" height="38.3" fill="#cf222e"/>
<line x1="112.1" y1="159.4" x2="112.1" y2="175.8" stroke="#cf222e"/>
<rect x="108.9" y="160.4" width="6.4" height="9.9" fill="#cf222e"/>
<line x1="121.2" y1="160.9" x2="121.2" y2="182.8" stroke="#cf222e"/>
<rect x="118.0" y="169.9" width="6.4" height="8.5" fill="#cf222e"/>
<line x1="130.3" y1="165.4" x2="130.3" y2="177.8" stroke="#cf222e"/>
<rect x="127.1" y="176.8" width="6.4" height="0.8" fill="#cf222e"/>
<line x1="139.4" y1="173.8" x2="139.4" y2="200.2" stroke="#cf222e"/>
<rect x="136.2" y="177.8" width="6.4" height="22.4" fill="#cf222e"/>
<line x1="148.5" y1="185.3" x2="148.5" y2="207.2" stroke="#cf222e"/>
<rect x="145.3" y="200.2" width="6.4" height="5.5" fill="#cf222e"/>
<line x1="157.5" y1="189.3" x2="157.5" y2="207.7" stroke="#1a7f37"/>
<rect x="154.4" y="197.7" width="6.4" height="6.5" fill="#1a7f37"/>
<line x1="166.6" y1="187.3" x2="166.6" y2="218.6" stroke="#1a7f37"/>
<rect x="163.4" y="188.8" width="6.4" height="9.9" fill="#1a7f37"/>
<line x1="175.7" y1="183.8" x2="175.7" y2="198.2" stroke="#cf222e"/>
<rect x="172.5" y="187.8" width="6.4" height="9.0" fill="#cf222e"/>
<line x1="184.8" y1="196.2" x2="184.8" y2="210.1" stroke="#cf222e"/>
<rect x="181.6" y="196.7" width="6.4" height="7.0" fill="#cf222e"/>
<line x1="193.9" y1="198.7" x2="193.9" y2="230.5" stroke="#cf222e"/>
<rect x="190.7" y="203.7" width="6.4" height="22.9" fill="#cf222e"/>
<line x1="203.0" y1="171.8" x2="203.0" y2="234.5" stroke="#1a7f37"/>
<rect x="199.8" y="171.8" width="6.4" height="54.7" fill="#1a7f37"/>
<line x1="212.0" y1="154.4" x2="212.0" y2="223.1" stroke="#cf222e"/>
<rect x="208.9" y="171.8" width="6.4" height="45.3" fill="#cf222e"/>
<line x1="221.1" y1="213.1" x2="221.1" y2="231.5" stroke="#cf222e"/>
<rect x="217.9" y="217.1" width="6.4" height="9.5" fill="#cf222e"/>
<line x1="230.2" y1="226.6" x2="230.2" y2="256.4" stroke="#cf222e"/>
<rect x="227.0" y="226.6" width="6.4" height="27.9" fill="#cf222e"/>
<line x1="239.3" y1="228.1" x2="239.3" y2="257.9" stroke="#1a7f37"/>
<rect x="236.1" y="231.5" width="6.4" height="20.9" fill="#1a7f37"/>
<line x1="248.4" y1="184.8" x2="248.4" y2="231.5" stroke="#1a7f37"/>
<rect x="245.2" y="194.7" width="6.4" height="36.8" fill="#1a7f37"/>
<line x1="257.5" y1="184.3" x2="257.5" y2="203.7" stroke="#1a7f37"/>
<rect x="254.3" y="188.3" width="6.4" height="6.5" fill="#1a7f37"/>
<line x1="266.5" y1="183.8" x2="266.5" y2="231.5" stroke="#cf222e"/>
<rect x="263.4" y="188.8" width="6.4" height="38.8" fill="#cf222e"/>
<line x1="275.6" y1="209.2" x2="275.6" y2="239.0" stroke="#cf222e"/>
<rect x="272.4" y="229.0" width="6.4" height="2.5" fill="#cf222e"/>
<line x1="284.7" y1="231.0" x2="284.7" y2="252.9" stroke="#cf222e"/>
<rect x="281.5" y="231.5" width="6.4" height="19.4" fill="#cf222e"/>
<line x1="293.8" y1="250.9" x2="293.8" y2="336.0" stroke="#cf222e"/>
<rect x="290.6" y="250.9" width="6.4" height="73.6" fill="#cf222e"/>
<line x1="302.9" y1="309.6" x2="302.9" y2="329.0" stroke="#cf222e"/>
<rect x="299.7" y="324.6" width="6.4" height="0.8" fill="#cf222e"/>
<line x1="312.0" y1="286.3" x2="312.0" y2="327.0" stroke="#1a7f37"/>
<rect x="308.8" y="291.7" width="6.4" height="33.3" fill="#1a7f37"/>
<line x1="321.0" y1="244.0" x2="321.0" y2="293.2" stroke="#1a7f37"/>
<rect x="317.9" y="245.5" width="6.4" height="46.3" fill="#1a7f37"/>
<line x1="330.1" y1="231.5" x2="330.1" y2="291.2" stroke="#cf222e"/>
<rect x="326.9" y="245.5" width="6.4" height="37.3" fill="#cf222e"/>
<line x1="339.2" y1="267.4" x2="339.2" y2="307.1" stroke="#1a7f37"/>
<rect x="336.0" y="267.4" width="6.4" height="15.4" fill="#1a7f37"/>
<line x1="348.3" y1="231.5" x2="348.3" y2="273.3" stroke="#1a7f37"/>
<rect x="345.1" y="246.0" width="6.4" height="21.4" fill="#1a7f37"/>
<line x1="357.4" y1="197.7" x2="357.4" y2="259.4" stroke="#1a7f37"/>
<rect x="354.2" y="197.7" width="6.4" height="48.3" fill="#1a7f37"/>
<line x1="366.5" y1="196.2" x2="366.5" y2="229.5" stroke="#cf222e"/>
<rect x="363.3" y="197.7" width="6.4" height="20.9" fill="#cf222e"/>
<line x1="375.5" y1="215.1" x2="375.5" y2="310.6" stroke="#cf222e"/>
<rect x="372.4" y="218.6" width="6.4" height="87.1" fill="#cf222e"/>
<line x1="384.6" y1="271.8" x2="384.6" y2="315.6" stroke="#1a7f37"/>
<rect x="381.4" y="275.8" width="6.4" height="30.3" fill="#1a7f37"/>
<line x1="393.7" y1="270.8" x2="393.7" y2="324.1" stroke="#cf222e"/>
<rect x="390.5" y="275.8" width="6.4" height="47.8" fill="#cf222e"/>
<line x1="402.8" y1="284.8" x2="402.8" y2="333.5" stroke="#1a7f37"/>
<rect x="399.6" y="294.2" width="6.4" height="29.3" fill="#1a7f37"/>
<line x1="411.9" y1="261.4" x2="411.9" y2="307.6" stroke="#1a7f37"/>
<rect x="408.7" y="279.3" width="6.4" height="14.9" fill="#1a7f37"/>
<line x1="421.0" y1="254.9" x2="421.0" y2="284.8" stroke="#1a7f37"/>
<rect x="417.8" y="268.8" width="6.4" height="10.4" fill="#1a7f37"/>
<line x1="430.0" y1="234.0" x2="430.0" y2="280.8" stroke="#1a7f37"/>
<rect x="426.9" y="259.4" width="6.4" height="9.5" fill="#1a7f37"/>
<line x1="439.1" y1="259.4" x2="439.1" y2="310.1" stroke="#cf222e"/>
<rect x="435.9" y="259.4" width="6.4" height="14.9" fill="#cf222e"/>
<line x1="448.2" y1="240.0" x2="448.2" y2="302.7" stroke="#1a7f37"/>
<rect x="445.0" y="243.5" width="6.4" height="31.3" fill="#1a7f37"/>
<line x1="457.3" y1="242.0" x2="457.3" y2="307.6" stroke="#cf222e"/>
<rect x="454.1" y="243.5" width="6.4" height="21.4" fill="#cf222e"/>
<line x1="466.4" y1="255.4" x2="466.4" y2="290.7" stroke="#cf222e"/>
<rect x="463.2" y="264.9" width="6.4" height="17.4" fill="#cf222e"/>
<line x1="475.5" y1="279.3" x2="475.5" y2="321.1" stroke="#cf222e"/>
<rect x="472.3" y="282.3" width="6.4" height="18.9" fill="#cf222e"/>
<line x1="484.5" y1="262.4" x2="484.5" y2="311.6" stroke="#1a7f37"/>
<rect x="481.4" y="273.3" width="6.4" height="26.9" fill="#1a7f37"/>
<line x1="493.6" y1="235.5" x2="493.6" y2="289.7" stroke="#1a7f37"/>
<rect x="490.4" y="238.0" width="6.4" height="34.8" fill="#1a7f37"/>
<line x1="502.7" y1="225.6" x2="502.7" y2="246.0" stroke="#1a7f37"/>
<rect x="499.5" y="226.1" width="6.4" height="11.9" fill="#1a7f37"/>
<line x1="511.8" y1="183.8" x2="511.8" y2="233.0" stroke="#1a7f37"/>
<rect x="508.6" y="193.7" width="6.4" height="32.3" fill="#1a7f37"/>
<line x1="520.9" y1="181.8" x2="520.9" y2="217.1" stroke="#cf222e"/>
<rect x="517.7" y="193.7" width="6.4" height="23.4" fill="#cf222e"/>
<line x1="530.0" y1="202.7" x2="530.0" y2="249.4" stroke="#1a7f37"/>
<rect x="526.8" y="207.2" width="6.4" height="9.5" fill="#1a7f37"/>
<line x1="539.0" y1="205.7" x2="539.0" y2="243.5" stroke="#cf222e"/>
<rect x="535.9" y="207.2" width="6.4" height="36.3" fill="#cf222e"/>
<line x1="548.1" y1="192.7" x2="548.1" y2="247.0" stroke="#1a7f37"/>
<rect x="544.9" y="196.2" width="6.4" height="47.3" fill="#1a7f37"/>
<line x1="557.2" y1="193.7" x2="557.2" y2="227.6" stroke="#cf222e"/>
<rect x="554.0" y="196.2" width="6.4" height="16.9" fill="#cf222e"/>
<line x1="566.3" y1="205.7" x2="566.3" y2="249.9" stroke="#cf222e"/>
<rect x="563.1" y="213.1" width="6.4" height="22.9" fill="#cf222e"/>
<line x1="575.4" y1="236.0" x2="575.4" y2="269.8" stroke="#cf222e"/>
<rect x="572.2" y="236.0" width="6.4" height="15.4" fill="#cf222e"/>
<line x1="584.5" y1="242.5" x2="584.5" y2="260.4" stroke="#cf222e"/>
<rect x="581.3" y="251.4" width="6.4" height="3.5" fill="#cf222e"/>
<line x1="593.5" y1="218.6" x2="593.5" y2="266.9" stroke="#1a7f37"/>
<rect x="590.4" y="247.5" width="6.4" height="7.5" fill="#1a7f37"/>
<line x1="602.6" y1="198.7" x2="602.6" y2="247.5" stroke="#1a7f37"/>
<rect x="599.4" y="216.6" width="6.4" height="30.8" fill="#1a7f37"/>
<line x1="611.7" y1="203.2" x2="611.7" y2="237.5" stroke="#1a7f37"/>
<rect x="608.5" y="211.1" width="6.4" height="5.5" fill="#1a7f37"/>
<line x1="620.8" y1="202.7" x2="620.8" y2="245.5" stroke="#cf222e"/>
<rect x="617.6" y="211.1" width="6.4" height="19.9" fill="#cf222e"/>
<line x1="629.9" y1="205.7" x2="629.9" y2="237.0" stroke="#1a7f37"/>
<rect x="626.7" y="210.6" width="6.4" height="20.4" fill="#1a7f37"/>
<line x1="639.0" y1="199.7" x2="639.0" y2="220.1" stroke="#1a7f37"/>
<rect x="635.8" y="207.7" width="6.4" height="3.0" fill="#1a7f37"/>
<line x1="648.0" y1="196.7" x2="648.0" y2="213.6" stroke="#1a7f37"/>
<rect x="644.9" y="201.7" width="6.4" height="6.5" fill="#1a7f37"/>
<line x1="657.1" y1="199.7" x2="657.1" y2="216.1" stroke="#cf222e"/>
<rect x="653.9" y="201.7" width="6.4" height="4.0" fill="#cf222e"/>
<line x1="666.2" y1="163.9" x2="666.2" y2="208.7" stroke="#1a7f37"/>
<rect x="663.0" y="171.3" width="6.4" height="34.3" fill="#1a7f37"/>
<line x1="675.3" y1="158.9" x2="675.3" y2="174.8" stroke="#1a7f37"/>
<rect x="672.1" y="160.4" width="6.4" height="9.9" fill="#1a7f37"/>
<line x1="684.4" y1="122.1" x2="684.4" y2="162.9" stroke="#1a7f37"/>
<rect x="681.2" y="126.1" width="6.4" height="34.3" fill="#1a7f37"/>
<line x1="693.5" y1="123.6" x2="693.5" y2="151.0" stroke="#cf222e"/>
<rect x="690.3" y="126.1" width="6.4" height="3.5" fill="#cf222e"/>
<line x1="702.5" y1="126.6" x2="702.5" y2="146.0" stroke="#cf222e"/>
<rect x="699.4" y="129.6" width="6.4" height="9.9" fill="#cf222e"/>
<line x1="711.6" y1="128.6" x2="711.6" y2="145.5" stroke="#1a7f37"/>
<rect x="708.4" y="137.5" width="6.4" height="2.0" fill="#1a7f37"/>
<line x1="720.7" y1="124.1" x2="720.7" y2="137.5" stroke="#1a7f37"/>
<rect x="717.5" y="129.1" width="6.4" height="8.5" fill="#1a7f37"/>
<line x1="729.8" y1="126.1" x2="729.8" y2="135.5" stroke="#cf222e"/>
<rect x="726.6" y="129.1" width="6.4" height="5.5" fill="#cf222e"/>
<line x1="738.9" y1="120.6" x2="738.9" y2="141.0" stroke="#cf222e"/>
<rect x="735.7" y="134.5" width="6.4" height="1.5" fill="#cf222e"/>
<line x1="748.0" y1="109.7" x2="748.0" y2="136.0" stroke="#1a7f37"/>
<rect x="744.8" y="118.6" width="6.4" height="17.4" fill="#1a7f37"/>
<line x1="757.0" y1="110.7" x2="757.0" y2="194.2" stroke="#cf222e"/>
<rect x="753.9" y="118.6" width="6.4" height="67.7" fill="#cf222e"/>
<line x1="766.1" y1="186.3" x2="766.1" y2="225.6" stroke="#cf222e"/>
<rect x="762.9" y="186.3" width="6.4" height="29.3" fill="#cf222e"/>
<line x1="775.2" y1="195.2" x2="775.2" y2="220.1" stroke="#1a7f37"/>
<rect x="772.0" y="199.7" width="6.4" height="15.9" fill="#1a7f37"/>
<line x1="784.3" y1="163.9" x2="784.3" y2="210.6" stroke="#1a7f37"/>
<rect x="781.1" y="163.9" width="6.4" height="35.8" fill="#1a7f37"/>
<line x1="793.4" y1="145.0" x2="793.4" y2="190.7" stroke="#cf222e"/>
<rect x="790.2" y="162.4" width="6.4" height="18.4" fill="#cf222e"/>
<line x1="802.5" y1="164.4" x2="802.5" y2="208.7" stroke="#1a7f37"/>
<rect x="799.3" y="180.8" width="6.4" height="0.8" fill="#1a7f37"/>
<line x1="811.5" y1="121.1" x2="811.5" y2="208.2" stroke="#1a7f37"/>
<rect x="808.4" y="121.1" width="6.4" height="59.2" fill="#1a7f37"/>
<line x1="820.6" y1="108.7" x2="820.6" y2="151.9" stroke="#cf222e"/>
<rect x="817.4" y="121.6" width="6.4" height="6.0" fill="#cf222e"/>
<line x1="829.7" y1="95.7" x2="829.7" y2="127.6" stroke="#1a7f37"/>
<rect x="826.5" y="111.7" width="6.4" height="15.9" fill="#1a7f37"/>
<line x1="838.8" y1="92.3" x2="838.8" y2="135.5" stroke="#cf222e"/>
<rect x="835.6" y="110.7" width="6.4" height="14.9" fill="#cf222e"/>
<line x1="847.9" y1="113.6" x2="847.9" y2="141.5" stroke="#cf222e"/>
<rect x="844.7" y="125.6" width="6.4" height="15.4" fill="#cf222e"/>
<line x1="857.0" y1="81.3" x2="857.0" y2="140.0" stroke="#1a7f37"/>
<rect x="853.8" y="92.3" width="6.4" height="47.3" fill="#1a7f37"/>
<line x1="866.0" y1="44.0" x2="866.0" y2="114.6" stroke="#1a7f37"/>
<rect x="862.9" y="84.3" width="6.4" height="8.0" fill="#1a7f37"/>
<line x1="875.1" y1="54.4" x2="875.1" y2="110.7" stroke="#cf222e"/>
<rect x="871.9" y="84.3" width="6.4" height="22.9" fill="#cf222e"/>
<line x1="884.2" y1="67.9" x2="884.2" y2="107.2" stroke="#1a7f37"/>
<rect x="881.0" y="76.3" width="6.4" height="30.8" fill="#1a7f37"/>
<line x1="893.3" y1="69.9" x2="893.3" y2="120.6" stroke="#cf222e"/>
<rect x="890.1" y="76.3" width="6.4" height="31.3" fill="#cf222e"/>
<line x1="902.4" y1="81.3" x2="902.4" y2="123.6" stroke="#cf222e"/>
<rect x="899.2" y="107.7" width="6.4" height="9.5" fill="#cf222e"/>
<line x1="911.5" y1="92.3" x2="911.5" y2="151.0" stroke="#1a7f37"/>
<rect x="908.3" y="94.2" width="6.4" height="22.9" fill="#1a7f37"/>
<text x="4" y="48" fill="#555">1711.10</text>
<text x="4" y="336" fill="#555">1705.23</text>
<text x="139.0" y="352" fill="#555">02:00</text>
<text x="248.0" y="352" fill="#555">03:00</text>
<text x="357.0" y="352" fill="#555">04:00</text>
<text x="466.0" y="352" fill="#555">05:00</text>
<text x="575.0" y="352" fill="#555">06:00</text>
<text x="684.0" y="352" fill="#555">07:00</text>
<text x="793.0" y="352" fill="#555">08:00</text>
</svg>