<svg xmlns="http://www.w3.org/2000/svg" width="960" height="380" font-family="sans-serif" font-size="11">
<rect width="960" height="380" fill="#ffffff"/>
<text x="44" y="18" font-size="12" fill="#111">M3 EOD SHORT | M3-EOD-2022-001 | 2022-10-13 05:55 | net +3.27 USD</text>
<line x1="480.0" y1="44" x2="480.0" y2="336" stroke="#1f6feb" stroke-dasharray="4 3"/>
<line x1="48.5" y1="100.7" x2="48.5" y2="127.3" stroke="#1a7f37"/>
<rect x="45.4" y="112.8" width="6.4" height="13.3" fill="#1a7f37"/>
<line x1="57.6" y1="102.2" x2="57.6" y2="118.5" stroke="#1a7f37"/>
<rect x="54.4" y="110.2" width="6.4" height="4.6" fill="#1a7f37"/>
<line x1="66.7" y1="105.6" x2="66.7" y2="115.9" stroke="#cf222e"/>
<rect x="63.5" y="110.2" width="6.4" height="5.3" fill="#cf222e"/>
<line x1="75.8" y1="90.0" x2="75.8" y2="115.5" stroke="#1a7f37"/>
<rect x="72.6" y="94.2" width="6.4" height="20.9" fill="#1a7f37"/>
<line x1="84.9" y1="88.9" x2="84.9" y2="102.9" stroke="#cf222e"/>
<rect x="81.7" y="94.2" width="6.4" height="2.7" fill="#cf222e"/>
<line x1="94.0" y1="85.8" x2="94.0" y2="101.8" stroke="#1a7f37"/>
<rect x="90.8" y="88.1" width="6.4" height="8.4" fill="#1a7f37"/>
<line x1="103.0" y1="78.2" x2="103.0" y2="90.0" stroke="#1a7f37"/>
<rect x="99.9" y="82.0" width="6.4" height="6.8" fill="#1a7f37"/>
<line x1="112.1" y1="75.2" x2="112.1" y2="82.4" stroke="#1a7f37"/>
<rect x="108.9" y="81.6" width="6.4" height="0.8" fill="#1a7f37"/>
<line x1="121.2" y1="75.2" x2="121.2" y2="80.1" stroke="#1a7f37"/>
<rect x="118.0" y="78.6" width="6.4" height="1.5" fill="#1a7f37"/>
<line x1="130.3" y1="76.7" x2="130.3" y2="80.9" stroke="#1a7f37"/>
<rect x="127.1" y="78.6" width="6.4" height="0.8" fill="#1a7f37"/>
<line x1="139.4" y1="77.8" x2="139.4" y2="83.2" stroke="#cf222e"/>
<rect x="136.2" y="77.8" width="6.4" height="3.4" fill="#cf222e"/>
<line x1="148.5" y1="70.6" x2="148.5" y2="82.4" stroke="#1a7f37"/>
<rect x="145.3" y="74.8" width="6.4" height="6.5" fill="#1a7f37"/>
<line x1="157.5" y1="70.2" x2="157.5" y2="79.4" stroke="#cf222e"/>
<rect x="154.4" y="73.3" width="6.4" height="5.7" fill="#cf222e"/>
<line x1="166.6" y1="79.0" x2="166.6" y2="132.6" stroke="#cf222e"/>
<rect x="163.4" y="79.0" width="6.4" height="27.8" fill="#cf222e"/>
<line x1="175.7" y1="82.4" x2="175.7" y2="110.2" stroke="#1a7f37"/>
<rect x="172.5" y="104.1" width="6.4" height="3.4" fill="#1a7f37"/>
<line x1="184.8" y1="99.1" x2="184.8" y2="134.5" stroke="#cf222e"/>
<rect x="181.6" y="103.3" width="6.4" height="24.3" fill="#cf222e"/>
<line x1="193.9" y1="112.4" x2="193.9" y2="136.4" stroke="#1a7f37"/>
<rect x="190.7" y="128.0" width="6.4" height="1.1" fill="#1a7f37"/>
<line x1="203.0" y1="109.4" x2="203.0" y2="130.7" stroke="#1a7f37"/>
<rect x="199.8" y="113.6" width="6.4" height="13.3" fill="#1a7f37"/>
<line x1="212.0" y1="74.0" x2="212.0" y2="118.5" stroke="#1a7f37"/>
<rect x="208.9" y="84.3" width="6.4" height="28.1" fill="#1a7f37"/>
<line x1="221.1" y1="58.8" x2="221.1" y2="106.7" stroke="#1a7f37"/>
<rect x="217.9" y="60.3" width="6.4" height="24.0" fill="#1a7f37"/>
<line x1="230.2" y1="44.0" x2="230.2" y2="87.3" stroke="#cf222e"/>
<rect x="227.0" y="62.6" width="6.4" height="24.7" fill="#cf222e"/>
<line x1="239.3" y1="87.7" x2="239.3" y2="109.4" stroke="#cf222e"/>
<rect x="236.1" y="88.1" width="6.4" height="12.9" fill="#cf222e"/>
<line x1="248.4" y1="90.8" x2="248.4" y2="115.1" stroke="#1a7f37"/>
<rect x="245.2" y="100.7" width="6.4" height="1.9" fill="#1a7f37"/>
<line x1="257.5" y1="90.4" x2="257.5" y2="116.2" stroke="#1a7f37"/>
<rect x="254.3" y="98.4" width="6.4" height="0.8" fill="#1a7f37"/>
<line x1="266.5" y1="72.9" x2="266.5" y2="108.6" stroke="#1a7f37"/>
<rect x="263.4" y="91.5" width="6.4" height="6.8" fill="#1a7f37"/>
<line x1="275.6" y1="72.1" x2="275.6" y2="112.1" stroke="#cf222e"/>
<rect x="272.4" y="91.5" width="6.4" height="18.2" fill="#cf222e"/>
<line x1="284.7" y1="102.2" x2="284.7" y2="121.6" stroke="#1a7f37"/>
<rect x="281.5" y="108.6" width="6.4" height="2.3" fill="#1a7f37"/>
<line x1="293.8" y1="83.9" x2="293.8" y2="116.6" stroke="#1a7f37"/>
<rect x="290.6" y="92.7" width="6.4" height="17.9" fill="#1a7f37"/>
<line x1="302.9" y1="82.8" x2="302.9" y2="101.8" stroke="#cf222e"/>
<rect x="299.7" y="93.8" width="6.4" height="4.6" fill="#cf222e"/>
<line x1="312.0" y1="87.7" x2="312.0" y2="147.0" stroke="#cf222e"/>
<rect x="308.8" y="99.1" width="6.4" height="34.6" fill="#cf222e"/>
<line x1="321.0" y1="121.6" x2="321.0" y2="141.0" stroke="#cf222e"/>
<rect x="317.9" y="137.2" width="6.4" height="1.1" fill="#cf222e"/>
<line x1="330.1" y1="130.3" x2="330.1" y2="179.4" stroke="#cf222e"/>
<rect x="326.9" y="137.9" width="6.4" height="34.2" fill="#cf222e"/>
<line x1="339.2" y1="147.4" x2="339.2" y2="185.4" stroke="#cf222e"/>
<rect x="336.0" y="173.3" width="6.4" height="9.5" fill="#cf222e"/>
<line x1="348.3" y1="165.7" x2="348.3" y2="190.8" stroke="#1a7f37"/>
<rect x="345.1" y="174.0" width="6.4" height="8.7" fill="#1a7f37"/>
<line x1="357.4" y1="146.3" x2="357.4" y2="179.4" stroke="#1a7f37"/>
<rect x="354.2" y="153.5" width="6.4" height="22.8" fill="#1a7f37"/>
<line x1="366.5" y1="115.1" x2="366.5" y2="160.3" stroke="#cf222e"/>
<rect x="363.3" y="154.6" width="6.4" height="0.8" fill="#cf222e"/>
<line x1="375.5" y1="148.6" x2="375.5" y2="179.4" stroke="#cf222e"/>
<rect x="372.4" y="155.0" width="6.4" height="9.5" fill="#cf222e"/>
<line x1="384.6" y1="158.4" x2="384.6" y2="196.1" stroke="#cf222e"/>
<rect x="381.4" y="168.3" width="6.4" height="19.0" fill="#cf222e"/>
<line x1="393.7" y1="183.5" x2="393.7" y2="200.6" stroke="#cf222e"/>
<rect x="390.5" y="191.1" width="6.4" height="5.7" fill="#cf222e"/>
<line x1="402.8" y1="197.6" x2="402.8" y2="228.8" stroke="#cf222e"/>
<rect x="399.6" y="198.4" width="6.4" height="21.7" fill="#cf222e"/>
<line x1="411.9" y1="221.6" x2="411.9" y2="242.8" stroke="#cf222e"/>
<rect x="408.7" y="221.6" width="6.4" height="12.2" fill="#cf222e"/>
<line x1="421.0" y1="222.7" x2="421.0" y2="255.8" stroke="#1a7f37"/>
<rect x="417.8" y="233.7" width="6.4" height="0.8" fill="#1a7f37"/>
<line x1="430.0" y1="226.5" x2="430.0" y2="242.1" stroke="#1a7f37"/>
<rect x="426.9" y="236.4" width="6.4" height="0.8" fill="#1a7f37"/>
<line x1="439.1" y1="204.8" x2="439.1" y2="237.1" stroke="#1a7f37"/>
<rect x="435.9" y="204.8" width="6.4" height="31.2" fill="#1a7f37"/>
<line x1="448.2" y1="201.4" x2="448.2" y2="223.1" stroke="#cf222e"/>
<rect x="445.0" y="204.8" width="6.4" height="10.3" fill="#cf222e"/>
<line x1="457.3" y1="203.7" x2="457.3" y2="221.9" stroke="#1a7f37"/>
<rect x="454.1" y="210.5" width="6.4" height="6.1" fill="#1a7f37"/>
<line x1="466.4" y1="210.9" x2="466.4" y2="238.7" stroke="#cf222e"/>
<rect x="463.2" y="211.7" width="6.4" height="17.1" fill="#cf222e"/>
<line x1="475.5" y1="217.4" x2="475.5" y2="243.2" stroke="#1a7f37"/>
<rect x="472.3" y="223.8" width="6.4" height="4.9" fill="#1a7f37"/>
<line x1="484.5" y1="225.0" x2="484.5" y2="260.7" stroke="#cf222e"/>
<rect x="481.4" y="225.0" width="6.4" height="27.8" fill="#cf222e"/>
<line x1="493.6" y1="252.7" x2="493.6" y2="287.0" stroke="#cf222e"/>
<rect x="490.4" y="252.7" width="6.4" height="32.7" fill="#cf222e"/>
<line x1="502.7" y1="269.8" x2="502.7" y2="287.3" stroke="#1a7f37"/>
<rect x="499.5" y="273.6" width="6.4" height="11.8" fill="#1a7f37"/>
<line x1="511.8" y1="272.9" x2="511.8" y2="288.1" stroke="#cf222e"/>
<rect x="508.6" y="273.3" width="6.4" height="8.4" fill="#cf222e"/>
<line x1="520.9" y1="261.1" x2="520.9" y2="288.1" stroke="#1a7f37"/>
<rect x="517.7" y="269.1" width="6.4" height="12.2" fill="#1a7f37"/>
<line x1="530.0" y1="248.2" x2="530.0" y2="288.5" stroke="#cf222e"/>
<rect x="526.8" y="267.9" width="6.4" height="16.0" fill="#cf222e"/>
<line x1="539.0" y1="250.5" x2="539.0" y2="283.9" stroke="#1a7f37"/>
<rect x="535.9" y="260.7" width="6.4" height="23.2" fill="#1a7f37"/>
<line x1="548.1" y1="257.7" x2="548.1" y2="275.5" stroke="#cf222e"/>
<rect x="544.9" y="261.5" width="6.4" height="5.3" fill="#cf222e"/>
<line x1="557.2" y1="257.7" x2="557.2" y2="270.6" stroke="#cf222e"/>
<rect x="554.0" y="266.8" width="6.4" height="3.8" fill="#cf222e"/>
<line x1="566.3" y1="260.0" x2="566.3" y2="279.7" stroke="#1a7f37"/>
<rect x="563.1" y="265.7" width="6.4" height="4.6" fill="#1a7f37"/>
<line x1="575.4" y1="257.7" x2="575.4" y2="287.0" stroke="#cf222e"/>
<rect x="572.2" y="267.6" width="6.4" height="8.0" fill="#cf222e"/>
<line x1="584.5" y1="257.7" x2="584.5" y2="279.0" stroke="#1a7f37"/>
<rect x="581.3" y="271.4" width="6.4" height="4.9" fill="#1a7f37"/>
<line x1="593.5" y1="268.3" x2="593.5" y2="280.1" stroke="#cf222e"/>
<rect x="590.4" y="269.5" width="6.4" height="9.1" fill="#cf222e"/>
<line x1="602.6" y1="269.1" x2="602.6" y2="289.6" stroke="#1a7f37"/>
<rect x="599.4" y="278.6" width="6.4" height="0.8" fill="#1a7f37"/>
<line x1="611.7" y1="270.2" x2="611.7" y2="287.0" stroke="#cf222e"/>
<rect x="608.5" y="277.1" width="6.4" height="0.8" fill="#cf222e"/>
<line x1="620.8" y1="266.0" x2="620.8" y2="284.7" stroke="#1a7f37"/>
<rect x="617.6" y="272.9" width="6.4" height="4.9" fill="#1a7f37"/>
<line x1="629.9" y1="266.8" x2="629.9" y2="282.4" stroke="#1a7f37"/>
<rect x="626.7" y="268.7" width="6.4" height="4.6" fill="#1a7f37"/>
<line x1="639.0" y1="260.0" x2="639.0" y2="277.4" stroke="#1a7f37"/>
<rect x="635.8" y="262.6" width="6.4" height="9.1" fill="#1a7f37"/>
<line x1="648.0" y1="259.6" x2="648.0" y2="269.8" stroke="#cf222e"/>
<rect x="644.9" y="262.6" width="6.4" height="1.1" fill="#cf222e"/>
<line x1="657.1" y1="239.8" x2="657.1" y2="264.5" stroke="#1a7f37"/>
<rect x="653.9" y="240.6" width="6.4" height="23.2" fill="#1a7f37"/>
<line x1="666.2" y1="240.2" x2="666.2" y2="261.1" stroke="#cf222e"/>
<rect x="663.0" y="240.2" width="6.4" height="13.3" fill="#cf222e"/>
<line x1="675.3" y1="243.6" x2="675.3" y2="256.9" stroke="#1a7f37"/>
<rect x="672.1" y="250.8" width="6.4" height="3.4" fill="#1a7f37"/>
<line x1="684.4" y1="250.5" x2="684.4" y2="271.4" stroke="#cf222e"/>
<rect x="681.2" y="250.5" width="6.4" height="6.5" fill="#cf222e"/>
<line x1="693.5" y1="250.5" x2="693.5" y2="266.4" stroke="#cf222e"/>
<rect x="690.3" y="256.5" width="6.4" height="1.9" fill="#cf222e"/>
<line x1="702.5" y1="244.4" x2="702.5" y2="261.1" stroke="#1a7f37"/>
<rect x="699.4" y="244.4" width="6.4" height="13.3" fill="#1a7f37"/>
<line x1="711.6" y1="243.2" x2="711.6" y2="271.4" stroke="#cf222e"/>
<rect x="708.4" y="244.8" width="6.4" height="23.2" fill="#cf222e"/>
<line x1="720.7" y1="261.1" x2="720.7" y2="277.8" stroke="#1a7f37"/>
<rect x="717.5" y="265.7" width="6.4" height="1.9" fill="#1a7f37"/>
<line x1="729.8" y1="241.3" x2="729.8" y2="277.1" stroke="#1a7f37"/>
<rect x="726.6" y="242.8" width="6.4" height="21.3" fill="#1a7f37"/>
<line x1="738.9" y1="219.7" x2="738.9" y2="251.6" stroke="#cf222e"/>
<rect x="735.7" y="240.2" width="6.4" height="11.0" fill="#cf222e"/>
<line x1="748.0" y1="247.0" x2="748.0" y2="278.2" stroke="#cf222e"/>
<rect x="744.8" y="251.2" width="6.4" height="12.2" fill="#cf222e"/>
<line x1="757.0" y1="240.2" x2="757.0" y2="269.8" stroke="#1a7f37"/>
<rect x="753.9" y="247.0" width="6.4" height="15.6" fill="#1a7f37"/>
<line x1="766.1" y1="244.8" x2="766.1" y2="270.2" stroke="#cf222e"/>
<rect x="762.9" y="247.0" width="6.4" height="6.8" fill="#cf222e"/>
<line x1="775.2" y1="227.6" x2="775.2" y2="257.7" stroke="#1a7f37"/>
<rect x="772.0" y="239.4" width="6.4" height="13.7" fill="#1a7f37"/>
<line x1="784.3" y1="208.6" x2="784.3" y2="246.3" stroke="#1a7f37"/>
<rect x="781.1" y="230.3" width="6.4" height="8.7" fill="#1a7f37"/>
<line x1="793.4" y1="228.4" x2="793.4" y2="252.7" stroke="#cf222e"/>
<rect x="790.2" y="229.9" width="6.4" height="15.2" fill="#cf222e"/>
<line x1="802.5" y1="234.5" x2="802.5" y2="255.4" stroke="#1a7f37"/>
<rect x="799.3" y="239.0" width="6.4" height="7.2" fill="#1a7f37"/>
<line x1="811.5" y1="237.1" x2="811.5" y2="288.5" stroke="#cf222e"/>
<rect x="808.4" y="238.3" width="6.4" height="48.3" fill="#cf222e"/>
<line x1="820.6" y1="215.5" x2="820.6" y2="289.2" stroke="#1a7f37"/>
<rect x="817.4" y="255.8" width="6.4" height="31.6" fill="#1a7f37"/>
<line x1="829.7" y1="241.7" x2="829.7" y2="269.5" stroke="#cf222e"/>
<rect x="826.5" y="255.0" width="6.4" height="6.1" fill="#cf222e"/>
<line x1="838.8" y1="252.7" x2="838.8" y2="287.3" stroke="#cf222e"/>
<rect x="835.6" y="259.6" width="6.4" height="13.3" fill="#cf222e"/>
<line x1="847.9" y1="269.8" x2="847.9" y2="312.0" stroke="#cf222e"/>
<rect x="844.7" y="274.4" width="6.4" height="14.8" fill="#cf222e"/>
<line x1="857.0" y1="258.4" x2="857.0" y2="297.2" stroke="#1a7f37"/>
<rect x="853.8" y="277.4" width="6.4" height="12.2" fill="#1a7f37"/>
<line x1="866.0" y1="276.7" x2="866.0" y2="329.9" stroke="#cf222e"/>
<rect x="862.9" y="276.7" width="6.4" height="51.7" fill="#cf222e"/>
<line x1="875.1" y1="289.2" x2="875.1" y2="336.0" stroke="#1a7f37"/>
<rect x="871.9" y="317.7" width="6.4" height="9.5" fill="#1a7f37"/>
<line x1="884.2" y1="307.9" x2="884.2" y2="328.4" stroke="#cf222e"/>
<rect x="881.0" y="318.1" width="6.4" height="6.5" fill="#cf222e"/>
<line x1="893.3" y1="301.0" x2="893.3" y2="330.7" stroke="#1a7f37"/>
<rect x="890.1" y="322.7" width="6.4" height="1.9" fill="#1a7f37"/>
<line x1="902.4" y1="283.5" x2="902.4" y2="323.5" stroke="#1a7f37"/>
<rect x="899.2" y="306.0" width="6.4" height="17.5" fill="#1a7f37"/>
<line x1="911.5" y1="296.1" x2="911.5" y2="319.3" stroke="#cf222e"/>
<rect x="908.3" y="307.1" width="6.4" height="4.6" fill="#cf222e"/>
<text x="4" y="48" fill="#555">1675.37</text>
<text x="4" y="336" fill="#555">1667.69</text>
<text x="39.1" y="352" fill="#555">02:00</text>
<text x="148.1" y="352" fill="#555">03:00</text>
<text x="257.1" y="352" fill="#555">04:00</text>
<text x="366.1" y="352" fill="#555">05:00</text>
<text x="475.1" y="352" fill="#555">06:00</text>
<text x="584.1" y="352" fill="#555">07:00</text>
<text x="693.1" y="352" fill="#555">08:00</text>
<text x="802.1" y="352" fill="#555">09:00</text>
</svg>